<?xml version="1.0" standalone="no"?>
<!DOCTYPE svg PUBLIC "-//W3C//DTD SVG 20010904//EN"
 "http://www.w3.org/TR/2001/REC-SVG-20010904/DTD/svg10.dtd">
<svg version="1.0" xmlns="http://www.w3.org/2000/svg"
 width="534.000000pt" height="534.000000pt" viewBox="0 0 534.000000 534.000000"
 preserveAspectRatio="xMidYMid meet">
<metadata>
Created by potrace 1.14, written by Peter Selinger 2001-2017
</metadata>
<g transform="translate(0.000000,534.000000) scale(0.100000,-0.100000)"
fill="#000000" stroke="none">
<path d="M1860 4525 l0 -295 275 0 275 0 0 -1635 0 -1635 255 0 255 0 0 1584
0 1584 -67 49 -68 48 343 3 342 2 0 295 0 295 -805 0 -805 0 0 -295z"/>
<path d="M450 4796 c-30 -7 -71 -20 -90 -30 -44 -23 -127 -102 -147 -140 -41
-79 -43 -100 -43 -643 l0 -521 550 -674 550 -673 0 -287 0 -288 -295 0 -295 0
0 305 0 305 -255 0 -255 0 0 -442 c0 -459 2 -486 43 -564 26 -49 109 -125 167
-153 l55 -26 515 -3 c385 -2 526 0 560 9 106 29 197 114 242 226 23 58 23 61
26 578 l3 521 -550 674 -551 674 0 236 0 236 -65 49 c-36 27 -65 50 -65 52 0
2 162 3 360 3 l360 0 0 -290 0 -290 255 0 255 0 0 393 c0 215 -4 420 -9 454
-23 157 -126 273 -273 308 -83 19 -961 20 -1048 1z"/>
<path d="M3852 4799 c-98 -19 -201 -98 -247 -190 -40 -78 -45 -147 -45 -657
l0 -482 550 -673 549 -672 1 -292 0 -293 -295 0 -295 0 0 305 0 305 -256 0
-255 0 3 -447 c3 -438 4 -449 26 -505 44 -110 139 -199 242 -227 33 -9 180
-11 560 -9 l515 3 55 26 c70 33 145 108 179 179 l26 55 3 541 3 540 -551 674
-550 674 0 233 0 232 -60 47 c-33 26 -60 49 -60 50 0 2 160 4 355 4 l355 0 0
-290 0 -290 255 0 256 0 -3 453 c-3 447 -3 453 -26 502 -46 100 -148 180 -260
204 -63 13 -963 14 -1030 0z"/>
<path d="M170 585 l0 -65 2500 0 2500 0 0 65 0 65 -2500 0 -2500 0 0 -65z"/>
</g>
</svg>
