<svg width="212" height="54" viewBox="0 0 212 54" fill="none" xmlns="http://www.w3.org/2000/svg">
<path d="M0 41.9288H6.16988V24.0266H23.5556V41.9804H29.7274V18.1377H17.9022V2.59106H11.7778V18.1377H0V41.9288Z" fill="url(#paint0_linear)"/>
<path d="M64.3073 27.7239C64.3073 32.4564 62.9607 36.0254 60.2676 38.4309C57.6007 40.8103 53.8486 42 49.0115 42H41.0891V13.9969H49.8743C52.8028 13.9969 55.339 14.5198 57.483 15.5657C59.6532 16.6115 61.3266 18.1542 62.5032 20.1936C63.7059 22.2069 64.3073 24.717 64.3073 27.7239ZM58.1498 27.8808C58.1498 24.7693 57.4699 22.4945 56.1103 21.0565C54.7507 19.5923 52.7766 18.8602 50.1881 18.8602H47.0113V37.0975H49.5606C55.2867 37.0975 58.1498 34.0252 58.1498 27.8808ZM77.2579 20.1544C80.134 20.1544 82.3304 20.7819 83.8469 22.037C85.3895 23.2659 86.1608 25.1615 86.1608 27.7239V42H82.082L80.9446 39.0977H80.7877C79.8726 40.2481 78.9051 41.0848 77.8854 41.6078C76.8657 42.1307 75.4669 42.3922 73.6889 42.3922C71.7802 42.3922 70.1983 41.8431 68.9433 40.7449C67.6882 39.6206 67.0607 37.908 67.0607 35.6071C67.0607 33.3323 67.8582 31.6589 69.4531 30.5869C71.0481 29.4888 73.4405 28.8874 76.6304 28.7828L80.3563 28.6652V27.7239C80.3563 26.5996 80.0556 25.7759 79.4542 25.253C78.879 24.7301 78.0685 24.4686 77.0226 24.4686C75.9767 24.4686 74.957 24.6255 73.9634 24.9393C72.9699 25.2269 71.9763 25.5929 70.9827 26.0374L69.0609 22.0762C70.2114 21.4748 71.4795 21.0042 72.8653 20.6643C74.2772 20.3244 75.7414 20.1544 77.2579 20.1544ZM80.3563 32.0773L78.0815 32.1557C76.199 32.208 74.8916 32.5479 74.1595 33.1755C73.4274 33.803 73.0614 34.6266 73.0614 35.6463C73.0614 36.5353 73.3228 37.1759 73.8458 37.5681C74.3687 37.9341 75.0485 38.1172 75.8852 38.1172C77.1402 38.1172 78.1992 37.7511 79.062 37.019C79.9249 36.2608 80.3563 35.2018 80.3563 33.8422V32.0773ZM99.9853 37.725C100.639 37.725 101.267 37.6596 101.868 37.5289C102.469 37.3981 103.071 37.2413 103.672 37.0582V41.4117C103.044 41.6731 102.26 41.8954 101.319 42.0784C100.404 42.2876 99.397 42.3922 98.2989 42.3922C97.0177 42.3922 95.8672 42.183 94.8475 41.7646C93.8539 41.3463 93.0565 40.6273 92.4551 39.6075C91.8799 38.5617 91.5923 37.1236 91.5923 35.2933V24.9785H88.8076V22.5076L92.0237 20.5466L93.7101 16.0363H97.436V20.5858H103.437V24.9785H97.436V35.2933C97.436 36.1039 97.6714 36.7183 98.142 37.1367C98.6126 37.5289 99.2271 37.725 99.9853 37.725ZM115.578 20.1544C118.454 20.1544 120.65 20.7819 122.167 22.037C123.709 23.2659 124.481 25.1615 124.481 27.7239V42H120.402L119.264 39.0977H119.108C118.192 40.2481 117.225 41.0848 116.205 41.6078C115.186 42.1307 113.787 42.3922 112.009 42.3922C110.1 42.3922 108.518 41.8431 107.263 40.7449C106.008 39.6206 105.381 37.908 105.381 35.6071C105.381 33.3323 106.178 31.6589 107.773 30.5869C109.368 29.4888 111.76 28.8874 114.95 28.7828L118.676 28.6652V27.7239C118.676 26.5996 118.375 25.7759 117.774 25.253C117.199 24.7301 116.388 24.4686 115.342 24.4686C114.297 24.4686 113.277 24.6255 112.283 24.9393C111.29 25.2269 110.296 25.5929 109.303 26.0374L107.381 22.0762C108.531 21.4748 109.799 21.0042 111.185 20.6643C112.597 20.3244 114.061 20.1544 115.578 20.1544ZM118.676 32.0773L116.401 32.1557C114.519 32.208 113.212 32.5479 112.479 33.1755C111.747 33.803 111.381 34.6266 111.381 35.6463C111.381 36.5353 111.643 37.1759 112.166 37.5681C112.689 37.9341 113.368 38.1172 114.205 38.1172C115.46 38.1172 116.519 37.7511 117.382 37.019C118.245 36.2608 118.676 35.2018 118.676 33.8422V32.0773ZM145.875 42H129.755V13.9969H145.875V18.8602H135.677V25.0177H145.169V29.881H135.677V37.0975H145.875V42ZM158.838 20.1544C161.715 20.1544 163.911 20.7819 165.427 22.037C166.97 23.2659 167.741 25.1615 167.741 27.7239V42H163.663L162.525 39.0977H162.368C161.453 40.2481 160.486 41.0848 159.466 41.6078C158.446 42.1307 157.047 42.3922 155.269 42.3922C153.361 42.3922 151.779 41.8431 150.524 40.7449C149.269 39.6206 148.641 37.908 148.641 35.6071C148.641 33.3323 149.439 31.6589 151.034 30.5869C152.629 29.4888 155.021 28.8874 158.211 28.7828L161.937 28.6652V27.7239C161.937 26.5996 161.636 25.7759 161.035 25.253C160.46 24.7301 159.649 24.4686 158.603 24.4686C157.557 24.4686 156.53 24.6255 155.544 24.9393C154.55 25.2269 153.557 25.5929 152.563 26.0374L150.641 22.0762C151.792 21.4748 153.06 21.0042 154.446 20.6643C155.858 20.3244 157.322 20.1544 158.838 20.1544ZM161.937 32.0773L159.662 32.1557C157.78 32.208 156.472 32.5479 155.74 33.1755C155.008 33.803 154.642 34.6266 154.642 35.6463C154.642 36.5353 154.903 37.1759 155.426 37.5681C155.949 37.9341 156.629 38.1172 157.466 38.1172C158.721 38.1172 159.78 37.7511 160.643 37.019C161.505 36.2608 161.937 35.2018 161.937 33.8422V32.0773ZM184.507 20.1936C184.795 20.1936 185.135 20.2067 185.527 20.2329C185.919 20.259 186.233 20.2982 186.468 20.3505L186.037 25.8413C185.854 25.789 185.579 25.7498 185.213 25.7237C184.873 25.6714 184.573 25.6452 184.311 25.6452C183.318 25.6452 182.363 25.8282 181.448 26.1943C180.533 26.5342 179.788 27.0964 179.213 27.8808C178.664 28.6652 178.389 29.7372 178.389 31.0968V42H172.545V20.5858H176.977L177.84 24.1941H178.115C178.742 23.0959 179.605 22.1546 180.703 21.3702C181.801 20.5858 183.069 20.1936 184.507 20.1936ZM201.336 20.1936C203.636 20.1936 205.48 20.8212 206.866 22.0762C208.251 23.3051 208.944 25.2922 208.944 28.0376V42H203.1V29.4888C203.1 27.9461 202.826 26.7957 202.277 26.0374C201.728 25.253 200.852 24.8608 199.649 24.8608C197.871 24.8608 196.655 25.4753 196.002 26.7042C195.348 27.9069 195.021 29.6457 195.021 31.9204V42H189.177V20.5858H193.648L194.433 23.3312H194.747C195.426 22.2331 196.355 21.4356 197.531 20.9388C198.734 20.442 200.002 20.1936 201.336 20.1936Z" fill="url(#paint1_linear)"/>
<defs>
<linearGradient id="paint0_linear" x1="0" y1="2.59106" x2="35.8819" y2="9.36113" gradientUnits="userSpaceOnUse">
<stop stop-color="#00AEFF"/>
<stop offset="1" stop-color="#40C486"/>
</linearGradient>
<linearGradient id="paint1_linear" x1="37.4536" y1="-4.57764e-05" x2="168.417" y2="106.877" gradientUnits="userSpaceOnUse">
<stop stop-color="#00AEFF"/>
<stop offset="1" stop-color="#40C486"/>
</linearGradient>
</defs>
</svg>

