<svg width="173" height="41" viewBox="0 0 173 41" fill="none" xmlns="http://www.w3.org/2000/svg">
<path d="M28.4449 29.1075C28.327 17.0243 40.9031 14.3971 40.2764 26.4831C40.2523 26.9142 40.2416 26.9169 39.8051 26.9919C36.0157 27.648 32.2262 28.4005 28.4449 29.1075ZM46.8376 0.283861L1.19854 12.335C-0.0226426 12.6591 -0.0065748 12.8706 0.0014593 13.5241C0.057698 19.4157 -0.0333546 25.3663 0.13804 31.2285C0.269263 35.6687 2.46257 38.8395 6.85723 39.7527C10.0709 40.4222 37.4564 40.8802 37.7109 40.8721C42.7241 40.7195 47.3946 38.7592 48.905 33.5397C50.7797 27.0428 49.3175 10.6184 49.1353 1.31223C49.1032 -0.208898 48.6158 -0.187475 46.8376 0.281181V0.283861ZM3.60877 15.4362L45.5227 4.7053C45.7021 9.41328 46.6608 23.5345 45.911 30.4519C45.1719 37.1577 38.0617 39.3832 33.0671 36.4373C31.4994 35.5594 30.2083 34.2608 29.3393 32.6881C34.3767 31.8177 39.248 30.7733 42.9411 30.0743C43.4445 29.9806 43.4767 29.9565 43.5329 29.4343C43.94 24.8816 43.632 18.4142 39.4944 16.2101C36.9985 14.8711 34.3499 15.6049 31.7549 16.1833C23.2147 18.0901 9.87002 22.5838 3.90335 25.1976C3.65162 25.3047 3.51772 25.2297 3.51772 24.9646C3.51772 21.7885 3.57396 18.6123 3.58199 15.4281L3.60877 15.4362ZM28.4047 37.147C28.0458 37.147 27.6361 37.147 27.2826 37.1095C20.9169 36.6542 14.5378 36.764 8.19089 36.3838C3.71857 36.116 2.22155 30.8536 5.12186 28.588C7.97397 26.3599 21.6427 22.9213 25.7829 21.6787C25.9378 21.6291 26.0976 21.5968 26.2596 21.5823C26.2227 21.7419 26.167 21.8965 26.0935 22.0429C24.0582 26.7669 24.4867 33.1433 28.1797 36.9408C28.2065 36.9676 28.4074 37.1416 28.4047 37.147Z" fill="white"/>
<path d="M63.9074 40.8793V31.9561C64.9977 32.1412 66.1009 32.2397 67.2068 32.2507C74.6089 32.2507 78.8375 27.8533 78.8375 20.2825C78.8375 13.8553 75.7069 9.9614 70.4204 9.9614C67.7424 9.9614 65.2598 11.3995 63.7253 13.7267L63.329 10.3845H57.5632L58.155 14.9104V40.8873L63.9074 40.8793ZM67.7986 13.7267C71.0123 13.7267 72.9592 16.6029 72.9592 21.2975C72.9592 27.0901 70.9292 30.3894 67.3353 30.3894C66.0836 30.4034 64.8684 29.9683 63.9101 29.1629V15.4166C64.3969 14.869 64.9972 14.4341 65.6693 14.1423C66.3413 13.8504 67.0689 13.7086 67.8013 13.7267H67.7986ZM91.4832 9.9614C88.955 9.92922 86.4584 10.5255 84.2176 11.6968V15.4166C86.7136 13.0063 89.081 11.7798 91.2394 11.7798C93.9469 11.7798 95.4681 13.558 95.4681 16.6002V18.9248C87.051 19.2649 82.8626 21.8438 82.8626 26.7071C82.8626 30.135 85.1469 32.248 88.9979 32.248C91.4082 32.248 93.6068 31.15 95.6796 28.9085L96.0599 31.8249H101.812L101.22 27.2588V17.6902C101.22 12.5296 97.964 9.95068 91.4912 9.95068L91.4832 9.9614ZM88.6069 25.8207C88.6069 22.8186 90.6797 21.2118 95.46 20.4941V27.3874C94.3192 28.6969 93.0498 29.3316 91.7376 29.3316C89.8415 29.3316 88.6069 27.8935 88.6069 25.8207ZM113.901 40.8793V31.9561C114.991 32.1412 116.094 32.2397 117.2 32.2507C124.602 32.2507 128.831 27.8533 128.831 20.2825C128.831 13.8553 125.703 9.9614 120.414 9.9614C117.749 9.9614 115.253 11.3995 113.732 13.7267L113.309 10.3845H107.557L108.149 14.9104V40.8873L113.901 40.8793ZM117.792 13.7267C121.006 13.7267 122.953 16.6002 122.953 21.2975C122.953 27.0901 120.923 30.3894 117.329 30.3894C116.077 30.4034 114.862 29.9683 113.904 29.1629V15.4166C114.39 14.869 114.991 14.4341 115.663 14.1423C116.335 13.8504 117.062 13.7086 117.795 13.7267H117.792ZM143.298 32.2507C146.214 32.2507 149.43 31.067 151.332 29.2486V28.1479C149.734 28.8689 147.997 29.23 146.244 29.2057C141.675 29.2057 138.841 26.2867 138.63 21.0431H152.052V19.7309C152.052 13.641 148.627 9.9614 142.875 9.9614C141.498 9.93637 140.133 10.2069 138.87 10.7549C137.608 11.3028 136.477 12.1153 135.556 13.1375C133.568 15.296 132.596 17.9178 132.596 21.0913C132.596 24.3478 133.611 27.0526 135.598 29.1254C137.586 31.1982 140.167 32.256 143.298 32.256V32.2507ZM142.958 11.8226C145.368 11.8226 146.594 14.1498 146.594 18.8016L138.6 19.3934C138.772 14.8247 140.462 11.8226 142.958 11.8226ZM163.386 32.2507C165.882 32.2507 167.997 31.5731 169.69 30.2636C171.339 28.9513 172.186 27.3445 172.186 25.4003C172.186 22.3527 170.365 20.4941 166.262 18.8444C163.852 17.9125 162.331 17.1519 161.653 16.6002C161.309 16.3395 161.033 15.9995 160.849 15.6092C160.665 15.2189 160.578 14.7899 160.595 14.3587C160.595 12.9635 161.95 11.7798 163.852 11.7798C165.924 11.7798 168.123 12.8376 170.45 14.9934V11.3138C168.392 10.3835 166.153 9.92161 163.895 9.9614C161.567 9.9614 159.623 10.5961 158.099 11.8226C157.375 12.3792 156.791 13.0976 156.395 13.9202C155.998 14.7429 155.8 15.6469 155.815 16.5601C155.815 19.605 157.805 21.8894 161.822 23.4105C164.192 24.2996 165.756 25.0601 166.516 25.6118C166.865 25.8535 167.152 26.1754 167.351 26.5505C167.55 26.9256 167.656 27.343 167.66 27.7676C167.66 29.3316 166.179 30.3894 163.471 30.3894C161.144 30.3894 158.608 29.2486 155.943 26.9642V30.6867C157.973 31.7579 160.469 32.2507 163.386 32.2507Z" fill="white"/>
</svg>
