<svg width="250" height="100" viewBox="0 0 433 187" fill="none" xmlns="http://www.w3.org/2000/svg">
<path d="M83.64 84.05C84.3307 84.05 85.0058 83.845 85.58 83.4611C86.1541 83.0772 86.6014 82.5315 86.8653 81.8932C87.1291 81.2549 87.1977 80.5527 87.0622 79.8754C86.9267 79.1982 86.5933 78.5763 86.1042 78.0886C85.6152 77.6009 84.9924 77.2693 84.3147 77.1358C83.6371 77.0023 82.935 77.0728 82.2975 77.3385C81.66 77.6042 81.1156 78.0531 80.7333 78.6283C80.351 79.2035 80.148 79.8793 80.15 80.57C80.15 81.0278 80.2403 81.4812 80.4159 81.904C80.5914 82.3269 80.8486 82.711 81.1728 83.0342C81.497 83.3575 81.8818 83.6136 82.3052 83.7879C82.7286 83.9622 83.1822 84.0513 83.64 84.05V84.05ZM105.64 142.53L102.2 152.76L100.8 157C101.03 157.028 101.251 157.102 101.45 157.22L102.68 153.55L105.91 143.95L112.26 125.08C112.028 125.062 111.805 124.986 111.61 124.86L105.64 142.53ZM64.91 141.22L60.84 130.87C60.638 130.987 60.4127 131.059 60.18 131.08L64.61 142.33L68 150.85L71.67 160.17L71.81 160.07C71.9607 159.985 72.1222 159.921 72.29 159.88L68.43 150.08L64.91 141.22ZM91.66 90.65L79.66 97.18L68.17 103.43C68.2993 103.624 68.3783 103.848 68.4 104.08L79.6 98L90.82 91.9L100.82 86.48C100.665 86.3085 100.552 86.103 100.49 85.88L91.66 90.65ZM138.09 107L128.87 134.25C129.098 134.27 129.318 134.345 129.51 134.47L138.73 107.22C138.503 107.195 138.284 107.12 138.09 107V107ZM65.55 103.42L42.55 77.49C42.4094 77.6704 42.2365 77.823 42.04 77.94L65.3 104.17C65.3189 103.9 65.4048 103.639 65.55 103.41V103.42ZM138.44 104.18L127.43 85C127.262 85.1623 127.056 85.2792 126.83 85.34L137.83 104.53C138.005 104.367 138.213 104.244 138.44 104.17V104.18ZM125.19 83.85C125.19 83.85 125.19 83.85 125.19 83.78L103.45 85C103.5 85.2239 103.5 85.4561 103.45 85.68L125.2 84.44C125.15 84.2469 125.146 84.0446 125.19 83.85V83.85ZM101.57 73.9V83.9C101.797 83.8501 102.033 83.8501 102.26 83.9V73.2V68.72V60.5C102.082 60.5403 101.898 60.5403 101.72 60.5C101.674 60.5056 101.626 60.5056 101.58 60.5V68.77L101.57 73.9ZM101.43 58L87.68 38.34C87.5155 38.5019 87.3265 38.6368 87.12 38.74L100.87 58.4C101.017 58.2184 101.211 58.0801 101.43 58ZM111.43 122.36C111.591 122.2 111.786 122.077 112 122L102.66 86.79C102.459 86.9092 102.233 86.981 102 87L111.43 122.36ZM60.91 128.18L67.14 105.8C66.9127 105.85 66.6773 105.85 66.45 105.8L60.22 128C60.4483 128.013 60.6705 128.078 60.87 128.19L60.91 128.18ZM33 107.77L41 133.88C41.1906 133.747 41.3994 133.643 41.62 133.57L33.7 107.57C33.4827 107.684 33.2445 107.752 33 107.77ZM57.16 58.1C56.9569 57.9926 56.7795 57.8425 56.64 57.66L42.05 74.66C42.2495 74.7767 42.4258 74.9293 42.57 75.11L57.16 58.1ZM40.94 78.19C40.711 78.1702 40.4874 78.1092 40.28 78.01L33 104C33.2267 104.022 33.4472 104.086 33.65 104.19L40.91 78.19" fill="#77C14F"></path>
<path d="M83.64 85.5399C82.6511 85.5399 81.6844 85.2467 80.8621 84.6973C80.0399 84.1479 79.399 83.367 79.0206 82.4534C78.6421 81.5397 78.5431 80.5344 78.7361 79.5645C78.929 78.5946 79.4052 77.7037 80.1045 77.0044C80.8037 76.3051 81.6946 75.8289 82.6645 75.636C83.6344 75.4431 84.6398 75.5421 85.5534 75.9205C86.467 76.299 87.2479 76.9398 87.7973 77.7621C88.3467 78.5843 88.64 79.551 88.64 80.5399C88.64 81.866 88.1132 83.1378 87.1755 84.0755C86.2378 85.0132 84.9661 85.5399 83.64 85.5399V85.5399ZM85.54 73.1399C84.9199 72.9757 84.2814 72.8917 83.64 72.8899C83.0674 72.8899 82.4969 72.957 81.94 73.0899C80.1152 73.5305 78.5153 74.625 77.4433 76.1661C76.3714 77.7073 75.9019 79.588 76.1237 81.4521C76.3456 83.3162 77.2433 85.0342 78.647 86.2807C80.0506 87.5273 81.8627 88.2157 83.74 88.2157C85.6172 88.2157 87.4293 87.5273 88.833 86.2807C90.2366 85.0342 91.1344 83.3162 91.3562 81.4521C91.5781 79.588 91.1086 77.7073 90.0366 76.1661C88.9647 74.625 87.3648 73.5305 85.54 73.0899V73.1399ZM79.6 97.9999L68.4 104.09C68.4329 104.324 68.4102 104.563 68.3338 104.787C68.2574 105.011 68.1293 105.214 67.96 105.38C67.7301 105.618 67.4276 105.773 67.1 105.82L60.87 128.2C60.9819 128.264 61.0859 128.341 61.18 128.43C61.3254 128.575 61.4408 128.747 61.5195 128.937C61.5983 129.126 61.6388 129.33 61.6388 129.535C61.6388 129.74 61.5983 129.944 61.5195 130.133C61.4408 130.323 61.3254 130.495 61.18 130.64C61.0861 130.731 60.9821 130.812 60.87 130.88L64.94 141.23L66.11 136.87L68.29 133.76L67.88 131.12L73.23 110.12L76.23 101.42L79.58 99.1499L79.6 97.9999ZM79.09 102.43C78.6169 102.43 78.1544 102.57 77.7611 102.833C77.3679 103.096 77.0616 103.47 76.881 103.908C76.7004 104.345 76.6536 104.826 76.7467 105.29C76.8397 105.754 77.0683 106.18 77.4036 106.513C77.7388 106.847 78.1656 107.074 78.6299 107.165C79.0942 107.256 79.575 107.208 80.0115 107.025C80.4481 106.843 80.8207 106.535 81.0821 106.14C81.3435 105.746 81.482 105.283 81.48 104.81C81.48 104.176 81.2282 103.568 80.78 103.12C80.3318 102.672 79.7238 102.42 79.09 102.42V102.43ZM104.89 161.35C104.888 161.659 104.978 161.961 105.148 162.219C105.318 162.477 105.561 162.679 105.846 162.798C106.131 162.918 106.445 162.95 106.748 162.891C107.051 162.832 107.33 162.684 107.549 162.467C107.769 162.249 107.918 161.971 107.979 161.668C108.04 161.365 108.01 161.051 107.892 160.765C107.774 160.48 107.574 160.235 107.318 160.064C107.061 159.892 106.759 159.8 106.45 159.8C106.246 159.799 106.045 159.837 105.856 159.914C105.667 159.991 105.496 160.104 105.351 160.247C105.206 160.39 105.091 160.56 105.012 160.748C104.933 160.935 104.891 161.136 104.89 161.34V161.35ZM100.65 133.54C100.27 133.538 99.8976 133.649 99.5806 133.859C99.2635 134.068 99.0159 134.368 98.869 134.718C98.7222 135.069 98.6827 135.455 98.7557 135.828C98.8286 136.201 99.0107 136.544 99.2788 136.814C99.5469 137.084 99.889 137.267 100.262 137.342C100.634 137.417 101.021 137.38 101.372 137.235C101.724 137.09 102.024 136.844 102.236 136.528C102.447 136.212 102.56 135.84 102.56 135.46C102.561 135.208 102.513 134.958 102.418 134.724C102.322 134.491 102.182 134.279 102.005 134.099C101.827 133.92 101.616 133.778 101.384 133.68C101.152 133.582 100.902 133.531 100.65 133.53V133.54ZM91 99.5199C90.6516 99.8681 90.4142 100.312 90.318 100.795C90.2217 101.278 90.2709 101.779 90.4593 102.234C90.6477 102.689 90.9669 103.078 91.3764 103.352C91.7859 103.625 92.2674 103.771 92.76 103.771C93.2525 103.771 93.734 103.625 94.1436 103.352C94.5531 103.078 94.8722 102.689 95.0606 102.234C95.249 101.779 95.2982 101.278 95.202 100.795C95.1058 100.312 94.8684 99.8681 94.52 99.5199C94.0531 99.0534 93.42 98.7913 92.76 98.7913C92.0999 98.7913 91.4669 99.0534 91 99.5199V99.5199ZM140 106.77C139.835 106.934 139.635 107.059 139.415 107.135C139.195 107.211 138.961 107.237 138.73 107.21L129.51 134.46C129.62 134.518 129.721 134.592 129.81 134.68C130.028 134.898 130.176 135.176 130.235 135.479C130.295 135.781 130.264 136.095 130.146 136.379C130.027 136.664 129.828 136.907 129.571 137.079C129.315 137.25 129.013 137.341 128.705 137.341C128.397 137.341 128.095 137.25 127.839 137.079C127.582 136.907 127.382 136.664 127.264 136.379C127.146 136.095 127.115 135.781 127.175 135.479C127.234 135.176 127.382 134.898 127.6 134.68C127.764 134.514 127.964 134.388 128.184 134.312C128.404 134.236 128.639 134.211 128.87 134.24L138.09 107C137.98 106.941 137.879 106.867 137.79 106.78C137.498 106.484 137.334 106.085 137.334 105.67C137.334 105.254 137.498 104.856 137.79 104.56C137.806 104.564 137.824 104.564 137.84 104.56L126.84 85.3699C126.666 85.4101 126.484 85.4101 126.31 85.3699C126.068 85.3343 125.841 85.2321 125.654 85.075C125.467 84.9179 125.327 84.7119 125.25 84.4799L103.49 85.6999C103.436 86.0224 103.282 86.3197 103.05 86.5499C102.939 86.6629 102.811 86.7574 102.67 86.8299L112 122C112.264 121.924 112.543 121.919 112.808 121.988C113.074 122.057 113.316 122.196 113.51 122.39C113.802 122.686 113.966 123.084 113.966 123.5C113.966 123.915 113.802 124.314 113.51 124.61C113.346 124.773 113.148 124.897 112.93 124.974C112.712 125.05 112.48 125.076 112.25 125.05L105.91 144L108.28 158L111.41 163.53L114.69 166.21H106.12L105 163.41L103.1 162.41L105.35 158.21L102.73 153.56L101.5 157.23C101.609 157.294 101.709 157.372 101.8 157.46C102.02 157.679 102.169 157.959 102.23 158.264C102.29 158.568 102.259 158.884 102.141 159.171C102.022 159.458 101.82 159.703 101.562 159.876C101.304 160.048 101.001 160.14 100.69 160.14C100.379 160.14 100.076 160.048 99.8177 159.876C99.5595 159.703 99.3583 159.458 99.2394 159.171C99.1206 158.884 99.0896 158.568 99.1502 158.264C99.2108 157.959 99.3604 157.679 99.58 157.46C99.7454 157.296 99.9451 157.171 100.165 157.093C100.384 157.015 100.618 156.987 100.85 157.01L102.28 152.76L97.68 144.6L97.24 132.9L90.77 122.9L86.54 111.7L75.54 135.11L74.54 141.78L69.48 148.18L68.41 150.08L72.27 159.88C72.7237 159.762 73.2052 159.818 73.62 160.036C74.0347 160.255 74.3528 160.621 74.5118 161.062C74.6708 161.503 74.6592 161.988 74.4794 162.421C74.2996 162.854 73.9644 163.204 73.5397 163.402C73.115 163.601 72.6314 163.634 72.1838 163.494C71.7362 163.355 71.3568 163.053 71.1202 162.648C70.8836 162.243 70.8067 161.765 70.9047 161.306C71.0027 160.848 71.2685 160.443 71.65 160.17L68 150.85L64.07 157.85L65.57 163.12L61.57 163.69L58.45 165.92L54.62 166.46L54.17 165.91L57.25 163L59.41 157.28L61.63 153.51L64.63 142.31L60.2 131.06C59.8879 131.075 59.5784 130.996 59.3116 130.834C59.0448 130.671 58.833 130.432 58.7037 130.147C58.5744 129.863 58.5335 129.546 58.5863 129.238C58.6392 128.93 58.7833 128.645 59 128.42C59.1656 128.26 59.364 128.137 59.5816 128.061C59.7991 127.985 60.0306 127.958 60.26 127.98L66.45 105.76C66.1117 105.661 65.8174 105.449 65.6156 105.16C65.4138 104.871 65.3166 104.522 65.34 104.17L42.08 77.9299C41.7798 78.1158 41.4331 78.2129 41.08 78.2099H40.91L33.65 104.21C33.9645 104.364 34.2296 104.603 34.415 104.9C34.6004 105.197 34.6987 105.54 34.6987 105.89C34.6987 106.24 34.6004 106.583 34.415 106.88C34.2296 107.177 33.9645 107.416 33.65 107.57L41.57 133.57C41.8077 133.486 42.0578 133.442 42.31 133.44C42.8732 133.437 43.4189 133.636 43.8485 134C44.2781 134.364 44.5633 134.87 44.6525 135.426C44.7417 135.982 44.6291 136.552 44.335 137.032C44.0409 137.513 43.5847 137.872 43.0488 138.045C42.5129 138.219 41.9327 138.195 41.4129 137.978C40.8932 137.761 40.4682 137.365 40.2147 136.862C39.9613 136.359 39.8961 135.782 40.0309 135.235C40.1658 134.688 40.4918 134.207 40.95 133.88L32.95 107.77H32.77C32.2938 107.735 31.8483 107.522 31.5232 107.172C31.1981 106.822 31.0174 106.362 31.0174 105.885C31.0174 105.407 31.1981 104.948 31.5232 104.598C31.8483 104.248 32.2938 104.035 32.77 104H32.98L40.23 77.9999C39.8506 77.81 39.5461 77.4979 39.3656 77.1139C39.1851 76.7299 39.139 76.2964 39.2348 75.883C39.3307 75.4697 39.5628 75.1006 39.8939 74.8352C40.2249 74.5698 40.6357 74.4235 41.06 74.4199C41.3908 74.4219 41.7152 74.5117 42 74.6799L56.59 57.6799C56.4526 57.5051 56.3525 57.304 56.2958 57.0891C56.239 56.8741 56.2268 56.6498 56.26 56.4299C56.3089 56.1076 56.4523 55.8069 56.672 55.566C56.8917 55.3251 57.1778 55.1546 57.4943 55.0761C57.8108 54.9977 58.1434 55.0148 58.4502 55.1252C58.757 55.2357 59.0242 55.4346 59.218 55.6967C59.4119 55.9589 59.5237 56.2727 59.5394 56.5983C59.555 56.924 59.4739 57.2471 59.3061 57.5266C59.1383 57.8062 58.8915 58.0299 58.5967 58.1693C58.302 58.3087 57.9725 58.3576 57.65 58.3099C57.4599 58.28 57.2769 58.2156 57.11 58.1199L42.52 75.1199C42.7914 75.4494 42.9399 75.863 42.9399 76.2899C42.9399 76.7168 42.7914 77.1305 42.52 77.4599L65.52 103.39C65.5748 103.298 65.6421 103.214 65.72 103.14C65.8649 102.995 66.0371 102.879 66.2267 102.8C66.4164 102.722 66.6197 102.681 66.825 102.681C67.0303 102.681 67.2336 102.722 67.4232 102.8C67.6128 102.879 67.7851 102.995 67.93 103.14C68.0138 103.218 68.0846 103.309 68.14 103.41L79.63 97.1599L79.86 93.5299L76.39 90.9999L73.39 87.7299L71.39 80.1499L60.09 81.4599L58.09 85.9199L55.84 66.0599L57.58 65.2299L57.42 61.7099L57.91 60.0499L61.48 59.3099C61.48 59.3099 64.72 56.3999 66.67 54.9399C67.35 54.4299 65.15 57.9399 65.15 57.9399L61.15 62.7599L59.41 63.1799L59.61 64.1799L60.28 63.8599L64.28 71.9499L62.87 75.1199L63.12 75.7699L71.7 71.8999L77.29 70.7499L77.72 68.3599C78.8064 68.7134 79.9252 68.9579 81.06 69.0899L78.85 63.7699H78.78C78.0643 63.6711 77.3951 63.3586 76.8599 62.8733C76.3246 62.388 75.9483 61.7525 75.78 61.0499L77.49 55.4999C79.1304 55.0178 80.6881 54.2895 82.11 53.3399C84 51.8899 88 50.1899 91.07 55.2099C91.966 57.1592 92.443 59.2748 92.47 61.4199L86.62 65.1399L86.41 66.7199L88 68.5599C88.8132 68.3105 89.5976 67.9753 90.34 67.5599C90.9588 68.1702 91.5431 68.8145 92.09 69.4899L101.54 68.8099V60.5399C101.22 60.4635 100.94 60.2704 100.755 59.9985C100.57 59.7266 100.494 59.3955 100.54 59.0699C100.58 58.8302 100.683 58.6057 100.84 58.4199L87.12 38.7399C86.7309 38.9242 86.2963 38.9903 85.87 38.9299C85.4519 38.866 85.0622 38.6797 84.75 38.3945C84.4377 38.1092 84.217 37.7378 84.1157 37.3272C84.0144 36.9167 84.037 36.4852 84.1806 36.0875C84.3243 35.6897 84.5826 35.3435 84.9229 35.0924C85.2633 34.8413 85.6704 34.6968 86.0928 34.6769C86.5152 34.657 86.9341 34.7627 87.2965 34.9808C87.6589 35.1988 87.9486 35.5192 88.1289 35.9018C88.3093 36.2843 88.3723 36.7117 88.31 37.1299C88.2348 37.5903 88.014 38.0144 87.68 38.3399L101.43 57.9999C101.636 57.9164 101.861 57.8921 102.08 57.9299C102.426 57.9818 102.737 58.1689 102.945 58.4502C103.154 58.7315 103.242 59.0839 103.19 59.4299C103.147 59.6879 103.029 59.9276 102.852 60.1195C102.674 60.3114 102.444 60.4472 102.19 60.5099V68.7299L102.96 68.6699L108.15 66.6699L112.77 67.4099L114.29 65.8699L121.97 66.8699L122.04 68.3299L123.82 68.2699L123.64 64.6599L124.75 59.1399C124.745 59.088 124.759 59.036 124.789 58.9933C124.819 58.9506 124.863 58.9199 124.913 58.9067C124.964 58.8934 125.017 58.8986 125.064 58.9212C125.111 58.9437 125.149 58.9823 125.17 59.0299L125.68 64.7099L128.58 68.8599L125.76 69.9999L122.23 71.1599V71.4999L117.98 72.4999L116.98 72.8099C116.976 72.7834 116.976 72.7564 116.98 72.7299L104.46 75.8299L108.29 71.9999H108.05L103.05 72.3699L102.25 73.1699V83.8699C102.54 83.9308 102.804 84.0771 103.01 84.2899C103.199 84.4789 103.337 84.7129 103.41 84.9699L125.16 83.7299C125.246 83.4081 125.449 83.1302 125.73 82.951C126.01 82.7718 126.348 82.7045 126.676 82.7623C127.004 82.8201 127.298 82.9988 127.501 83.2632C127.703 83.5275 127.799 83.8582 127.77 84.1899C127.724 84.4705 127.591 84.7294 127.39 84.9299L138.39 104.12C138.724 104.016 139.083 104.027 139.41 104.151C139.737 104.276 140.012 104.507 140.192 104.807C140.372 105.106 140.446 105.458 140.402 105.805C140.358 106.152 140.199 106.474 139.95 106.72L140 106.77ZM85.6 165.9C82.5 165.9 79.29 165.98 76.06 166.11L77.82 163.87L79.18 150.35L77.6 143.24L84.79 127.55H86.55L93.74 143.24L92.15 150.35L93.52 163.87L95.28 166.11C92 166 88.74 165.9 85.6 165.9ZM143.23 103.42C141.63 94.4199 136.23 73.2899 136.23 73.2899L124.44 55.2899L98 47.1299V44.0499H100.38V39.7799C100.385 39.7167 100.385 39.6532 100.38 39.5899C100.38 39.3799 100.38 39.1799 100.38 38.9699V34.1799H97.94H97.84C97.1 28.8099 93.1 25.5799 87.9 24.5799L86.9 18.9799C87.1288 18.8276 87.3161 18.6209 87.4453 18.3783C87.5745 18.1357 87.6413 17.8648 87.64 17.5899C87.6478 17.2923 87.5769 16.9978 87.4343 16.7364C87.2917 16.4749 87.0826 16.2558 86.8282 16.1012C86.5737 15.9466 86.2828 15.8619 85.9851 15.8558C85.6874 15.8497 85.3934 15.9224 85.1328 16.0665C84.8722 16.2106 84.6543 16.421 84.5012 16.6764C84.348 16.9318 84.2651 17.2231 84.2607 17.5208C84.2564 17.8186 84.3308 18.1122 84.4764 18.3719C84.622 18.6317 84.8337 18.8483 85.09 18.9999L84.15 24.4199C78.6 25.2599 74.27 28.5399 73.49 34.1599H73.4H71V38.9999C71 39.2099 71 39.4099 71 39.6199C71 39.8299 71 39.7499 71 39.8099V44.0799H73.38V47.1599L46.88 55.3099L35.08 73.3099C35.08 73.3099 29.72 94.4599 28.08 103.44C27.3541 106.065 26.9841 108.776 26.98 111.5V122.86C26.98 122.86 29.7 132.05 33.72 134.27C33.97 137.77 39.46 141.66 39.46 141.66H45.18C48.66 141.66 51.47 135.36 51.47 135.36C51.47 135.36 49.72 128.05 47.47 127.86V117.65C47.47 117.65 45.47 110.72 42.42 108.99C46.63 106.762 49.8911 103.086 51.6 98.6399L51.83 112.48L54.53 119.06L53.62 132.84L56.4 141.66L54.48 152.88L53.23 162.39L50.28 166.2L51.34 168C46.56 168.5 42.34 169 39.2 169.4C39.0982 169.421 39.0076 169.479 38.9449 169.562C38.8822 169.645 38.8517 169.747 38.859 169.851C38.8663 169.955 38.911 170.052 38.9847 170.126C39.0584 170.199 39.1562 170.243 39.26 170.25H132.05C132.154 170.243 132.252 170.199 132.325 170.126C132.399 170.052 132.444 169.955 132.451 169.851C132.458 169.747 132.428 169.645 132.365 169.562C132.302 169.479 132.212 169.421 132.11 169.4C128.94 169 124.76 168.5 119.99 168.01L121.06 166.23L118.06 162.42L116.81 152.91L114.88 141.69L117.67 132.87L116.76 119.09L119.46 112.51L119.68 98.6699C121.399 103.105 124.658 106.772 128.86 109C125.81 110.73 123.81 117.66 123.81 117.66V127.85C121.58 128.04 119.81 135.35 119.81 135.35C119.81 135.35 122.63 141.65 126.1 141.65H131.83C131.83 141.65 137.32 137.76 137.56 134.26C141.56 132.04 144.31 122.85 144.31 122.85V111.48C144.306 108.756 143.936 106.045 143.21 103.42H143.23ZM108 70.6599C108.309 70.6599 108.61 70.5685 108.867 70.397C109.123 70.2256 109.323 69.982 109.441 69.6969C109.559 69.4119 109.59 69.0982 109.53 68.7956C109.47 68.493 109.321 68.215 109.103 67.9969C108.885 67.7787 108.607 67.6301 108.304 67.5699C108.002 67.5097 107.688 67.5406 107.403 67.6587C107.118 67.7768 106.874 67.9767 106.703 68.2332C106.531 68.4898 106.44 68.7914 106.44 69.0999C106.439 69.3052 106.478 69.5086 106.556 69.6985C106.634 69.8884 106.749 70.0609 106.894 70.206C107.039 70.3511 107.212 70.466 107.401 70.5439C107.591 70.6218 107.795 70.6613 108 70.6599V70.6599ZM100.87 86.5499L100.81 86.4699L90.81 91.8899L91.81 94.8899L96.13 97.0499L103.64 129.34L102.8 132.98L105.43 137.31L105.12 140.77L105.59 142.58L111.59 124.82C111.48 124.761 111.379 124.687 111.29 124.6C110.998 124.304 110.834 123.905 110.834 123.49C110.834 123.074 110.998 122.676 111.29 122.38L111.37 122.32L102 86.9999C101.786 87.0091 101.572 86.9739 101.373 86.8964C101.173 86.819 100.992 86.701 100.84 86.5499H100.87ZM62.08 76.9999C61.9903 76.9901 61.8997 76.9901 61.81 76.9999C61.6056 76.9999 61.4032 77.0404 61.2145 77.1189C61.0258 77.1974 60.8545 77.3125 60.7104 77.4575C60.5664 77.6024 60.4524 77.7745 60.3751 77.9637C60.2978 78.1529 60.2587 78.3556 60.26 78.5599C60.2677 78.9686 60.4334 79.3584 60.7225 79.6474C61.0115 79.9365 61.4013 80.1023 61.81 80.1099C62.0142 80.1277 62.2199 80.105 62.4153 80.0432C62.6108 79.9815 62.7921 79.8818 62.9491 79.75C63.106 79.6181 63.2354 79.4566 63.33 79.2747C63.4245 79.0929 63.4823 78.8942 63.5 78.6899C63.5177 78.4857 63.495 78.28 63.4333 78.0846C63.3715 77.8891 63.2719 77.7078 63.14 77.5509C63.0081 77.3939 62.8467 77.2645 62.6648 77.17C62.4829 77.0754 62.2842 77.0177 62.08 76.9999V76.9999ZM85.55 63.4499C86.1433 63.4499 86.7233 63.274 87.2167 62.9444C87.71 62.6147 88.0946 62.1462 88.3216 61.598C88.5487 61.0498 88.6081 60.4466 88.4923 59.8647C88.3766 59.2827 88.0909 58.7482 87.6713 58.3286C87.2517 57.9091 86.7172 57.6233 86.1353 57.5076C85.5533 57.3918 84.9501 57.4512 84.4019 57.6783C83.8537 57.9054 83.3852 58.2899 83.0556 58.7832C82.7259 59.2766 82.55 59.8566 82.55 60.4499C82.55 61.2456 82.8661 62.0087 83.4287 62.5713C83.9913 63.1339 84.7543 63.4499 85.55 63.4499V63.4499ZM69.8 134.26C69.4198 134.258 69.0476 134.369 68.7306 134.579C68.4135 134.788 68.1659 135.088 68.019 135.438C67.8722 135.789 67.8327 136.175 67.9057 136.548C67.9786 136.921 68.1607 137.264 68.4288 137.534C68.6969 137.804 69.039 137.987 69.4117 138.062C69.7844 138.137 70.171 138.1 70.5224 137.955C70.8738 137.81 71.1743 137.564 71.3857 137.248C71.5971 136.932 71.71 136.56 71.71 136.18C71.71 135.672 71.5091 135.186 71.1512 134.826C70.7933 134.466 70.3075 134.263 69.8 134.26V134.26ZM62.38 159.19C62.071 159.188 61.7684 159.278 61.5106 159.448C61.2527 159.618 61.0512 159.861 60.9316 160.146C60.812 160.431 60.7797 160.745 60.8387 161.048C60.8978 161.351 61.0456 161.63 61.2634 161.849C61.4811 162.069 61.7591 162.218 62.0619 162.279C62.3648 162.34 62.679 162.31 62.9646 162.192C63.2503 162.074 63.4945 161.874 63.6664 161.618C63.8382 161.361 63.93 161.059 63.93 160.75C63.93 160.338 63.767 159.943 63.4766 159.65C63.1862 159.358 62.792 159.193 62.38 159.19ZM100.84 84.3399C101.05 84.1326 101.313 83.9872 101.6 83.9199V73.9199L95.22 80.2599L93.22 88.4599L91.65 90.6699L100.44 85.8899C100.363 85.6233 100.359 85.3409 100.427 85.072C100.496 84.803 100.635 84.5572 100.83 84.3599" fill="#112B35"></path>
<path d="M272.48 105.51C272.48 104.84 272.11 104.44 271.18 104.44H269.5V106.6H271.19C272 106.6 272.48 106.23 272.48 105.51ZM269.48 101.65V103.65H271C271.86 103.65 272.25 103.22 272.25 102.65C272.25 102.08 271.9 101.65 271.07 101.65H269.48ZM273.36 105.48C273.367 105.748 273.315 106.015 273.209 106.261C273.103 106.508 272.944 106.728 272.745 106.908C272.545 107.088 272.309 107.222 272.053 107.302C271.797 107.381 271.526 107.405 271.26 107.37H268.59V100.88H271.19C272.49 100.88 273.19 101.5 273.19 102.55C273.211 102.832 273.147 103.115 273.006 103.361C272.866 103.607 272.654 103.805 272.4 103.93C272.716 104.04 272.985 104.252 273.167 104.533C273.348 104.814 273.43 105.147 273.4 105.48" fill="#77C14F"></path>
<path d="M278.83 106.55V107.37H274.67V100.88H278.78V101.69H275.56V103.69H278.42V104.5H275.56V106.56H278.83" fill="#77C14F"></path>
<path d="M279.56 104.22C279.512 103.763 279.563 103.302 279.71 102.867C279.856 102.432 280.094 102.033 280.408 101.699C280.722 101.364 281.105 101.1 281.529 100.926C281.954 100.752 282.411 100.672 282.87 100.69C283.439 100.674 284.005 100.78 284.53 101V101.83C284.02 101.592 283.463 101.472 282.9 101.48C281.35 101.48 280.46 102.48 280.46 104.22C280.42 104.544 280.45 104.873 280.548 105.185C280.646 105.496 280.811 105.783 281.03 106.025C281.25 106.267 281.519 106.459 281.819 106.587C282.119 106.716 282.444 106.778 282.77 106.77C283.402 106.781 284.026 106.625 284.58 106.32V107.14C284.008 107.422 283.378 107.566 282.74 107.56C280.74 107.56 279.56 106.27 279.56 104.22" fill="#77C14F"></path>
<path d="M286.11 104.12C286.11 105.76 286.97 106.77 288.31 106.77C289.65 106.77 290.51 105.77 290.51 104.12C290.51 102.47 289.65 101.48 288.31 101.48C286.97 101.48 286.11 102.49 286.11 104.12ZM291.41 104.12C291.41 106.2 290.25 107.56 288.31 107.56C286.37 107.56 285.21 106.2 285.21 104.12C285.21 102.04 286.38 100.69 288.31 100.69C290.24 100.69 291.41 102.04 291.41 104.12Z" fill="#77C14F"></path>
<path d="M299 100.88V107.37H298.15V103.87V102.26C298 102.54 297.84 102.8 297.67 103.06L296.07 105.53H295.49L293.88 103.06C293.733 102.82 293.583 102.57 293.43 102.31V103.88V107.37H292.58V100.88H293.39L295.79 104.55L298.15 100.88H298.95" fill="#77C14F"></path>
<path d="M304.85 106.55V107.37H300.68V100.88H304.79V101.69H301.57V103.69H304.44V104.5H301.57V106.56H304.85" fill="#77C14F"></path>
<path d="M313.11 102.12H311V107.37H309.6V102.12H307.52V100.88H313.11V102.12Z" fill="#112B35"></path>
<path d="M319.42 100.88V107.37H318V104.74H315.33V107.37H313.9V100.88H315.32V103.44H318V100.88H319.43" fill="#112B35"></path>
<path d="M325.27 106.21V107.37H320.82V100.88H325.22V102H322.22V103.47H325V104.63H322.28V106.18H325.28" fill="#112B35"></path>
<path d="M332.06 105.43C332.06 104.87 331.73 104.59 331.06 104.59H329.79V106.32H331C331.68 106.32 332.07 106.02 332.07 105.43H332.06ZM329.77 101.92V103.54H330.94C331.63 103.54 331.94 103.2 331.94 102.72C331.94 102.24 331.69 101.92 330.94 101.92H329.77ZM333.46 105.4C333.46 106.68 332.57 107.4 331.16 107.4H328.36V100.91H331.36C332.62 100.91 333.31 101.55 333.31 102.61C333.324 102.871 333.265 103.131 333.139 103.361C333.014 103.59 332.827 103.78 332.6 103.91C332.889 104.039 333.13 104.255 333.291 104.527C333.453 104.799 333.525 105.115 333.5 105.43" fill="#112B35"></path>
<path d="M339 106.21V107.37H334.54V100.88H338.94V102H335.94V103.47H338.66V104.63H336V106.18H339" fill="#112B35"></path>
<path d="M339.78 107.16V105.81C340.453 106.189 341.218 106.376 341.99 106.35C342.91 106.35 343.33 106.11 343.33 105.61C343.33 105.11 343 104.93 341.76 104.61C340.36 104.27 339.76 103.7 339.76 102.61C339.76 101.35 340.76 100.61 342.35 100.61C343.031 100.588 343.71 100.696 344.35 100.93V102.16C343.732 101.932 343.079 101.813 342.42 101.81C341.54 101.81 341.09 102.01 341.09 102.47C341.09 102.93 341.33 103.05 342.43 103.31C344.04 103.71 344.7 104.31 344.7 105.4C344.7 106.74 343.7 107.48 341.93 107.48C341.183 107.511 340.438 107.375 339.75 107.08" fill="#112B35"></path>
<path d="M350.66 102.12H348.57V107.37H347.14V102.12H345.06V100.88H350.66V102.12" fill="#112B35"></path>
<path d="M358.81 100.88L356.18 107.37H355.34L352.71 100.88H353.71L354.93 104.03C355.26 104.88 355.59 105.79 355.79 106.37C355.99 105.79 356.32 104.88 356.64 104.03L357.84 100.88H358.84" fill="#77C14F"></path>
<path d="M363.89 106.55V107.37H359.72V100.88H363.83V101.69H360.61V103.69H363.48V104.5H360.61V106.56H363.89" fill="#77C14F"></path>
<path d="M367.49 104.09C368.33 104.09 368.93 103.75 368.93 102.85C368.93 101.95 368.33 101.68 367.49 101.68H366V104.09H367.49ZM370.12 107.37H369.12L368.22 105.55C368.142 105.334 367.992 105.152 367.795 105.033C367.599 104.915 367.367 104.868 367.14 104.9H366V107.37H365.11V100.88H367.49C368.89 100.88 369.82 101.47 369.82 102.8C369.824 103.204 369.706 103.6 369.481 103.935C369.256 104.271 368.935 104.53 368.56 104.68C368.677 104.739 368.782 104.821 368.868 104.92C368.953 105.02 369.019 105.135 369.06 105.26L370.06 107.37" fill="#77C14F"></path>
<path d="M370.84 107.14V106.2C371.484 106.597 372.233 106.792 372.99 106.76C373.99 106.76 374.58 106.4 374.58 105.7C374.58 105 374.16 104.7 372.9 104.42C371.44 104.03 370.9 103.51 370.9 102.49C370.9 101.47 371.84 100.69 373.35 100.69C373.978 100.671 374.603 100.776 375.19 101V101.83C374.601 101.598 373.973 101.483 373.34 101.49C372.34 101.49 371.78 101.81 371.78 102.49C371.78 103.17 372.09 103.32 373.27 103.63C374.86 104.07 375.51 104.63 375.51 105.63C375.51 106.88 374.62 107.56 372.95 107.56C372.233 107.583 371.521 107.439 370.87 107.14" fill="#77C14F"></path>
<path d="M377.53 100.88V107.37H376.63V100.88H377.53Z" fill="#77C14F"></path>
<path d="M379.69 104.12C379.69 105.76 380.54 106.77 381.89 106.77C383.24 106.77 384.08 105.77 384.08 104.12C384.08 102.47 383.23 101.48 381.89 101.48C380.55 101.48 379.69 102.49 379.69 104.12ZM384.99 104.12C384.99 106.2 383.82 107.56 381.89 107.56C379.96 107.56 378.78 106.2 378.78 104.12C378.78 102.04 379.96 100.69 381.89 100.69C383.82 100.69 384.99 102.04 384.99 104.12Z" fill="#77C14F"></path>
<path d="M391.52 100.88V107.37H390.71L387.08 102.29C387.08 102.47 387.08 102.66 387.08 102.83V107.37H386.23V100.88H387.04L390.66 105.96C390.66 105.78 390.66 105.59 390.66 105.41V100.88H391.52" fill="#77C14F"></path>
<path d="M300.81 112.66C300.81 114.29 301.66 115.3 303.01 115.3C304.36 115.3 305.19 114.3 305.19 112.66C305.19 111.02 304.34 110 303 110C301.66 110 300.81 111 300.81 112.66ZM306.1 112.66C306.1 114.74 304.93 116.09 303.01 116.09C301.09 116.09 299.91 114.74 299.91 112.66C299.91 110.58 301.08 109.24 303.01 109.24C304.94 109.24 306.1 110.59 306.1 112.66Z" fill="#77C14F"></path>
<path d="M308.32 110.24V112.36H311V113.17H308.31V115.9H307.43V109.42H311.5V110.24H308.31" fill="#77C14F"></path>
<path d="M317 113.52V115.9H316.12V113.56L313.68 109.42H314.78L315.97 111.54C316.21 111.98 316.43 112.42 316.59 112.74C316.72 112.47 316.92 112.07 317.22 111.53L318.39 109.42H319.39L316.98 113.52" fill="#77C14F"></path>
<path d="M320.61 112.66C320.61 114.29 321.47 115.3 322.81 115.3C324.15 115.3 324.99 114.3 324.99 112.66C324.99 111.02 324.14 110.02 322.81 110.02C321.48 110.02 320.61 111 320.61 112.66ZM325.9 112.66C325.9 114.74 324.73 116.09 322.81 116.09C320.89 116.09 319.71 114.74 319.71 112.66C319.71 110.58 320.88 109.24 322.81 109.24C324.74 109.24 325.9 110.59 325.9 112.66Z" fill="#77C14F"></path>
<path d="M328.05 109.42V113.27C328.05 114.5 328.61 115.27 329.76 115.27C330.91 115.27 331.48 114.47 331.48 113.27V109.42H332.36V113.32C332.408 113.68 332.376 114.047 332.265 114.394C332.154 114.74 331.967 115.057 331.718 115.323C331.469 115.588 331.164 115.794 330.826 115.927C330.487 116.06 330.123 116.115 329.76 116.09C327.98 116.09 327.16 115.01 327.16 113.32V109.42H328.05" fill="#77C14F"></path>
<path d="M336.36 112.63C337.2 112.63 337.79 112.29 337.79 111.39C337.79 110.49 337.2 110.23 336.36 110.23H334.9V112.63H336.36ZM339 115.9H338L337.11 114.09C337.032 113.874 336.882 113.692 336.685 113.573C336.489 113.455 336.257 113.408 336.03 113.44H334.9V115.9H334V109.42H336.37C337.76 109.42 338.69 110.02 338.69 111.34C338.695 111.743 338.579 112.138 338.356 112.473C338.133 112.809 337.813 113.069 337.44 113.22C337.672 113.346 337.85 113.552 337.94 113.8L338.94 115.9" fill="#77C14F"></path>
<path d="M339.79 115.67V114.74C340.433 115.132 341.178 115.324 341.93 115.29C342.93 115.29 343.52 114.93 343.52 114.24C343.52 113.55 343.1 113.29 341.84 112.96C340.39 112.57 339.84 112.05 339.84 111.03C339.84 110.01 340.78 109.24 342.29 109.24C342.915 109.221 343.536 109.327 344.12 109.55V110.38C343.536 110.141 342.911 110.022 342.28 110.03C341.28 110.03 340.72 110.36 340.72 111.03C340.72 111.7 341.03 111.85 342.2 112.17C343.8 112.6 344.44 113.17 344.44 114.17C344.44 115.42 343.55 116.1 341.89 116.1C341.174 116.123 340.461 115.979 339.81 115.68" fill="#77C14F"></path>
<path d="M349.82 115.09V115.9H345.66V109.42H349.76V110.24H346.55V112.24H349.41V113H346.55V115.06H349.82" fill="#77C14F"></path>
<path d="M355.31 115.09V115.9H351.14V109.42H352V115.09H355.28" fill="#77C14F"></path>
<path d="M357.22 110.24V112.36H359.91V113.17H357.22V115.9H356.33V109.42H360.41V110.24H357.22Z" fill="#77C14F"></path>
<path d="M255.28 104.06C254.77 105.06 254.28 106.17 253.93 106.97C253.59 106.15 253.08 105.04 252.61 104.08L250.54 100H246.41L252.17 110.14V115.57H255.57V110.07L261.33 100H257.33L255.33 104.07" fill="#112B35"></path>
<path d="M199.8 103H204.8V115.59H208.22V103H213.22V100H199.8V103Z" fill="#112B35"></path>
<path d="M175 109.82L177 104.1L179 109.82H175ZM175.44 99.99L169.37 115.56H173L174.09 112.4H179.85L180.94 115.56H184.65L178.57 100H175.43" fill="#112B35"></path>
<path d="M238.91 107.46H236.35V102.9H238.91C240.67 102.9 241.71 103.57 241.71 105.1C241.71 106.63 240.6 107.46 238.91 107.46ZM242.38 109.53C243.229 109.139 243.943 108.506 244.434 107.711C244.925 106.916 245.171 105.994 245.14 105.06C245.14 101.63 242.82 99.99 239.02 99.99H233V115.56H236.4V110.29H238C238.437 110.258 238.873 110.366 239.245 110.598C239.617 110.83 239.906 111.174 240.07 111.58L242.07 115.58H245.85L243.49 110.91C243.26 110.358 242.874 109.886 242.38 109.55" fill="#112B35"></path>
<path d="M159.19 115.56H162.6V109.93H168.65V106.93H162.6V102.93H169.69V99.9299H159.19V115.5" fill="#112B35"></path>
<path d="M189.12 107.91C189.12 104.32 190.92 102.46 194.12 102.46C195.351 102.426 196.575 102.669 197.7 103.17V100.17C196.453 99.6828 195.118 99.4614 193.78 99.5199C188.78 99.5199 185.6 102.52 185.6 107.97C185.6 113.02 188.44 115.97 193.6 115.97C195.065 115.993 196.517 115.689 197.85 115.08V112.08C196.678 112.723 195.357 113.047 194.02 113.02C190.78 113.02 189.11 111.15 189.11 107.86" fill="#112B35"></path>
<path d="M222.13 113.07C219.49 113.07 217.84 111.07 217.84 107.77C217.84 104.47 219.49 102.48 222.13 102.48C224.77 102.48 226.4 104.48 226.4 107.77C226.4 111.06 224.73 113.07 222.13 113.07ZM222.13 99.5399C217.28 99.5399 214.37 102.72 214.37 107.79C214.37 112.86 217.28 116 222.13 116C226.98 116 229.85 112.84 229.85 107.75C229.85 102.66 226.96 99.5399 222.13 99.5399Z" fill="#112B35"></path>
<path d="M219 82.9999C219 83.8699 219 84.7699 219 85.6499V87.3499L211.68 76.5499H207.63V94.2499H211.79V87.5899C211.79 86.7599 211.79 85.9399 211.79 85.1199L211.73 83.4199L219.06 94.2199H223.11V76.5199H219V82.9999ZM176.54 85.2499H174.09V80.1499H176.54C179.13 80.1499 179.67 81.5099 179.67 82.6499C179.69 84.2499 178.52 85.2199 176.56 85.2199L176.54 85.2499ZM181.37 88.3999L180.68 87.9599L181.39 87.5599C182.276 87.0895 183.013 86.3802 183.517 85.5123C184.021 84.6445 184.271 83.6529 184.24 82.6499C184.24 77.6499 180.18 76.5499 176.78 76.5499H169.53V94.2499H174.09V88.6099H175.36C175.865 88.5983 176.362 88.7416 176.784 89.0204C177.206 89.2992 177.532 89.7003 177.72 90.1699L179.72 94.1699H184.8L182.51 89.7099C182.248 89.1614 181.856 88.6845 181.37 88.3199V88.3999ZM401 76.5199V82.9999C401 83.8699 401 84.7699 401 85.6499L401.05 87.3499L393.73 76.5499H389.7V94.2499H393.87V87.5899C393.87 86.7599 393.87 85.9399 393.87 85.1199V83.4099L401.19 94.2199H405.24V76.5199H401ZM193.4 88.6699L195.7 81.4199L198 88.6699H193.4ZM193.58 76.5199L186.85 94.2199H191.63L192.45 91.6299H198.94L199.77 94.2199H204.68L198 76.5199H193.58ZM310.23 84.9999L304.94 76.4999H300.64V94.1999H304.8V82.4599L310.23 91.8499L315.64 82.1199V94.2199H319.81V76.5199H315.5L310.23 84.9999ZM150.38 80.2799H156.12V94.2199H160.68V80.2799H166.43V76.5199H150.38V80.2799ZM340.26 80.2799H346V94.2199H350.56V80.2799H356.31V76.5199H340.26V80.2799ZM376.85 90.9999C374.01 90.9999 372.32 88.8799 372.32 85.3499C372.32 81.8199 374.01 79.6999 376.85 79.6999C379.69 79.6999 381.37 81.8099 381.37 85.3499C381.37 88.8899 379.68 90.9999 376.85 90.9999ZM376.85 75.9999C371.12 75.9999 367.7 79.5299 367.7 85.4399C367.7 91.3499 371.04 94.7799 376.85 94.7799C382.66 94.7799 386 91.3199 386 85.3199C386 79.3199 382.66 75.9999 376.85 75.9999ZM244.92 94.2199H249.48V88.5099H256.27V84.7399H249.48V80.2799H257.36V76.5199H244.92V94.2199ZM359.43 94.2199H364V76.5199H359.44L359.43 94.2199ZM329.43 88.6699L331.73 81.4199L334.03 88.6699H329.43ZM329.61 76.5199L322.89 94.2199H327.66L328.49 91.6299H334.97L335.8 94.2199H340.71L334 76.5199H329.61ZM288.8 85.2199H286.36V80.1199H288.8C291.39 80.1199 291.94 81.4799 291.94 82.6199C291.91 84.2499 290.73 85.2199 288.77 85.2199H288.8ZM293.63 88.3699L292.94 87.9299L293.66 87.5299C294.546 87.06 295.282 86.3504 295.784 85.4823C296.286 84.6141 296.534 83.6223 296.5 82.6199C296.5 77.6199 292.45 76.5199 289.04 76.5199H281.79V94.2199H286.36V88.6099H287.62C288.128 88.5956 288.629 88.7375 289.055 89.0164C289.48 89.2953 289.81 89.6979 290 90.1699L292 94.1699H297L294.7 89.7099C294.438 89.1614 294.046 88.6845 293.56 88.3199L293.63 88.3699ZM268.91 90.9999C266.07 90.9999 264.38 88.8799 264.38 85.3499C264.38 81.8199 266.07 79.6999 268.91 79.6999C271.75 79.6999 273.43 81.8099 273.43 85.3499C273.43 88.8899 271.74 90.9999 268.91 90.9999ZM268.91 75.9999C263.18 75.9999 259.76 79.5299 259.76 85.4399C259.76 91.3499 263.09 94.7799 268.91 94.7799C274.73 94.7799 278.05 91.3399 278.05 85.3399C278.05 79.3399 274.72 75.9999 268.91 75.9999ZM235 83.2099C232.29 82.6599 231.19 82.3799 231.19 81.2099C231.19 79.5899 233.31 79.5899 234.86 79.5899C236.65 79.6132 238.427 79.8892 240.14 80.4099V76.7899C238.291 76.1891 236.352 75.915 234.41 75.9799C229.77 75.9799 227.1 78.0399 227.1 81.6299C227.1 84.6299 228.6 86.1599 232.27 86.9699C235.68 87.6699 236.88 88.0399 236.88 89.3699C236.88 90.9599 235.01 91.1799 233.18 91.1799C231.117 91.2264 229.069 90.8202 227.18 89.9899V93.8299C229.127 94.5189 231.186 94.8344 233.25 94.7599C236.93 94.7599 241.3 93.7599 241.3 88.8699C241.3 85.6699 239.72 84.2399 235.02 83.2099" fill="#77C14F"></path>
<path d="M171.57 72.29H168V70H171.14V69.11H168V67H171.52V66.1H167V73.21H171.56V72.32" fill="#112B35"></path>
<path d="M152.38 73.18H153.38V67H155.77V66.1H150V67H152.38V73.21" fill="#112B35"></path>
<path d="M159.07 69.9999H162.91V73.1499H163.91V66.0699H162.91V69.1399H159.07V66.0699H158.07V73.1799H159.07V69.9999Z" fill="#112B35"></path>
</svg>