<?xml version="1.0" encoding="utf-8"?>
<!-- Generator: Adobe Illustrator 25.0.0, SVG Export Plug-In . SVG Version: 6.00 Build 0)  -->
<svg version="1.1" id="Layer_1" xmlns="http://www.w3.org/2000/svg" xmlns:xlink="http://www.w3.org/1999/xlink" x="0px" y="0px"
	 viewBox="0 0 206.89 187.4" style="enable-background:new 0 0 206.89 187.4;" xml:space="preserve">
<style type="text/css">
	.st0{fill:#606060;}
	.st1{fill:#FFFFFF;stroke:#262626;stroke-linecap:round;stroke-linejoin:round;stroke-miterlimit:10;}
	.st2{fill:none;stroke:#111111;stroke-miterlimit:10;}
	.st3{fill:#FFFFFF;stroke:#111111;stroke-linecap:round;stroke-linejoin:round;stroke-miterlimit:10;}
	.st4{fill:#FFFFFF;stroke:#111111;stroke-miterlimit:10;}
	.st5{opacity:0.44;}
	.st6{fill:none;stroke:url(#SVGID_1_);stroke-miterlimit:10;}
	.st7{fill:none;stroke:url(#SVGID_2_);stroke-miterlimit:10;}
	.st8{fill:none;stroke:url(#SVGID_3_);stroke-miterlimit:10;}
	.st9{fill:none;stroke:url(#SVGID_4_);stroke-miterlimit:10;}
	.st10{fill:none;stroke:url(#SVGID_5_);stroke-miterlimit:10;}
	.st11{fill:none;stroke:url(#SVGID_6_);stroke-miterlimit:10;}
	.st12{fill:none;stroke:url(#SVGID_7_);stroke-miterlimit:10;}
	.st13{fill:none;stroke:url(#SVGID_8_);stroke-miterlimit:10;}
	.st14{fill:none;stroke:url(#SVGID_9_);stroke-miterlimit:10;}
	.st15{fill:none;stroke:url(#SVGID_10_);stroke-miterlimit:10;}
	.st16{fill:none;stroke:url(#SVGID_11_);stroke-miterlimit:10;}
	.st17{fill:none;stroke:url(#SVGID_12_);stroke-miterlimit:10;}
	.st18{fill:none;stroke:url(#SVGID_13_);stroke-miterlimit:10;}
	.st19{fill:none;stroke:url(#SVGID_14_);stroke-miterlimit:10;}
	.st20{fill:none;stroke:url(#SVGID_15_);stroke-miterlimit:10;}
	.st21{fill:none;stroke:url(#SVGID_16_);stroke-miterlimit:10;}
	.st22{fill:none;stroke:url(#SVGID_17_);stroke-miterlimit:10;}
	.st23{fill:none;stroke:url(#SVGID_18_);stroke-miterlimit:10;}
	.st24{enable-background:new    ;}
	.st25{clip-path:url(#SVGID_20_);}
	.st26{fill:#111111;}
	.st27{fill:url(#SVGID_23_);}
	.st28{fill:url(#SVGID_24_);}
	.st29{fill:url(#SVGID_25_);}
	.st30{fill:url(#SVGID_26_);}
	.st31{fill:url(#SVGID_27_);}
	.st32{fill:url(#SVGID_28_);}
	.st33{fill:url(#SVGID_29_);}
	.st34{fill:#FFFFFF;}
	.st35{fill:url(#SVGID_30_);}
	.st36{fill:url(#SVGID_31_);}
	.st37{fill:url(#SVGID_32_);}
	.st38{fill:url(#SVGID_33_);}
	.st39{fill:url(#SVGID_34_);}
	.st40{fill:url(#SVGID_35_);}
	.st41{fill:url(#SVGID_36_);}
	.st42{fill:url(#SVGID_37_);}
	.st43{fill:url(#SVGID_38_);}
	.st44{fill:url(#SVGID_39_);}
	.st45{fill:url(#SVGID_40_);}
	.st46{fill:url(#SVGID_41_);}
	.st47{fill:url(#SVGID_42_);}
	.st48{fill:url(#SVGID_43_);}
	.st49{fill:url(#SVGID_44_);}
	.st50{fill:url(#SVGID_45_);}
	.st51{fill:url(#SVGID_46_);}
	.st52{fill:url(#SVGID_47_);}
	.st53{fill:url(#SVGID_48_);}
	.st54{fill:url(#SVGID_49_);}
	.st55{fill:url(#SVGID_50_);}
	.st56{fill:url(#SVGID_51_);}
	.st57{fill:url(#SVGID_52_);}
	.st58{fill:url(#SVGID_53_);}
	.st59{fill:url(#SVGID_54_);}
	.st60{fill:url(#SVGID_55_);}
	.st61{fill:url(#SVGID_56_);}
	.st62{fill:url(#SVGID_57_);}
	.st63{fill:url(#SVGID_58_);}
	.st64{fill:url(#SVGID_59_);}
	.st65{fill:url(#SVGID_60_);}
	.st66{fill:url(#SVGID_61_);}
	.st67{fill:url(#SVGID_62_);}
	.st68{fill:url(#SVGID_63_);}
	.st69{fill:url(#SVGID_64_);}
	.st70{fill:none;stroke:url(#SVGID_65_);stroke-miterlimit:10;}
	.st71{fill:none;stroke:url(#SVGID_66_);stroke-miterlimit:10;}
	.st72{fill:none;stroke:url(#SVGID_67_);stroke-miterlimit:10;}
	.st73{fill:none;stroke:url(#SVGID_68_);stroke-miterlimit:10;}
	.st74{fill:none;stroke:url(#SVGID_69_);stroke-miterlimit:10;}
	.st75{fill:none;stroke:url(#SVGID_70_);stroke-miterlimit:10;}
	.st76{fill:#DCDCDC;}
	.st77{fill:#C5C5C5;}
	.st78{fill:#898989;}
	.st79{clip-path:url(#SVGID_72_);enable-background:new    ;}
	.st80{fill:#7F7F7F;}
	.st81{fill:#838383;}
	.st82{fill:#888888;}
	.st83{fill:#8C8C8C;}
	.st84{fill:#919191;}
	.st85{fill:#959595;}
	.st86{fill:#999999;}
	.st87{fill:#9E9E9E;}
	.st88{fill:#7B7B7B;}
	.st89{fill:#767676;}
	.st90{fill:#727272;}
	.st91{fill:#BDBDBD;}
	.st92{clip-path:url(#SVGID_74_);enable-background:new    ;}
	.st93{clip-path:url(#SVGID_76_);enable-background:new    ;}
	.st94{clip-path:url(#SVGID_78_);enable-background:new    ;}
	.st95{fill:#7E7E7E;}
	.st96{fill:#757575;}
	.st97{fill:#D9D9D9;}
	.st98{fill:none;stroke:url(#SVGID_79_);stroke-width:0.75;stroke-miterlimit:10;}
	.st99{fill:none;stroke:url(#SVGID_80_);stroke-width:0.75;stroke-miterlimit:10;}
	.st100{fill:none;stroke:url(#SVGID_81_);stroke-width:0.75;stroke-miterlimit:10;}
	.st101{fill:none;stroke:url(#SVGID_82_);stroke-width:0.75;stroke-miterlimit:10;}
	.st102{fill:none;stroke:url(#SVGID_83_);stroke-width:0.75;stroke-miterlimit:10;}
	.st103{fill:none;stroke:url(#SVGID_84_);stroke-width:0.75;stroke-miterlimit:10;}
	.st104{fill:none;stroke:url(#SVGID_85_);stroke-width:0.75;stroke-miterlimit:10;}
	.st105{fill:none;stroke:url(#SVGID_86_);stroke-width:0.75;stroke-miterlimit:10;}
	.st106{fill:none;stroke:url(#SVGID_87_);stroke-width:0.75;stroke-miterlimit:10;}
	.st107{fill:none;stroke:url(#SVGID_88_);stroke-width:0.75;stroke-miterlimit:10;}
	.st108{fill:none;stroke:url(#SVGID_89_);stroke-width:0.75;stroke-miterlimit:10;}
	.st109{fill:none;stroke:url(#SVGID_90_);stroke-width:0.75;stroke-miterlimit:10;}
	.st110{fill:none;stroke:url(#SVGID_91_);stroke-width:0.75;stroke-miterlimit:10;}
	.st111{fill:none;stroke:url(#SVGID_92_);stroke-width:0.75;stroke-miterlimit:10;}
	.st112{fill:none;stroke:url(#SVGID_93_);stroke-width:0.75;stroke-miterlimit:10;}
	.st113{fill:none;stroke:url(#SVGID_94_);stroke-width:0.75;stroke-miterlimit:10;}
	.st114{fill:none;stroke:url(#SVGID_95_);stroke-width:0.75;stroke-miterlimit:10;}
	.st115{fill:none;stroke:url(#SVGID_96_);stroke-width:0.75;stroke-miterlimit:10;}
	.st116{fill:none;stroke:url(#SVGID_97_);stroke-width:0.75;stroke-miterlimit:10;}
	.st117{fill:none;stroke:url(#SVGID_98_);stroke-width:0.75;stroke-miterlimit:10;}
	.st118{fill:none;stroke:url(#SVGID_99_);stroke-width:0.75;stroke-miterlimit:10;}
	.st119{fill:none;stroke:url(#SVGID_100_);stroke-width:0.75;stroke-miterlimit:10;}
	.st120{fill:none;stroke:url(#SVGID_101_);stroke-width:0.75;stroke-miterlimit:10;}
	.st121{fill:none;stroke:url(#SVGID_102_);stroke-width:0.75;stroke-miterlimit:10;}
	.st122{fill:none;stroke:url(#SVGID_103_);stroke-width:0.75;stroke-miterlimit:10;}
	.st123{fill:none;stroke:url(#SVGID_104_);stroke-width:0.75;stroke-miterlimit:10;}
	.st124{fill:none;stroke:url(#SVGID_105_);stroke-width:0.75;stroke-miterlimit:10;}
	.st125{fill:none;stroke:url(#SVGID_106_);stroke-width:0.75;stroke-miterlimit:10;}
	.st126{fill:none;stroke:url(#SVGID_107_);stroke-width:0.75;stroke-miterlimit:10;}
	.st127{fill:none;stroke:url(#SVGID_108_);stroke-width:0.75;stroke-miterlimit:10;}
	.st128{fill:none;stroke:url(#SVGID_109_);stroke-width:0.75;stroke-miterlimit:10;}
	.st129{fill:none;stroke:url(#SVGID_110_);stroke-width:0.75;stroke-miterlimit:10;}
	.st130{fill:none;stroke:url(#SVGID_111_);stroke-width:0.75;stroke-miterlimit:10;}
	.st131{fill:none;stroke:url(#SVGID_112_);stroke-width:0.75;stroke-miterlimit:10;}
	.st132{fill:none;stroke:url(#SVGID_113_);stroke-width:0.75;stroke-miterlimit:10;}
	.st133{fill:none;stroke:url(#SVGID_114_);stroke-width:0.75;stroke-miterlimit:10;}
	.st134{fill:none;stroke:url(#SVGID_115_);stroke-width:0.75;stroke-miterlimit:10;}
	.st135{fill:none;stroke:url(#SVGID_116_);stroke-width:0.75;stroke-miterlimit:10;}
	.st136{fill:none;stroke:url(#SVGID_117_);stroke-width:0.75;stroke-miterlimit:10;}
	.st137{fill:none;stroke:url(#SVGID_118_);stroke-width:0.75;stroke-miterlimit:10;}
	.st138{fill:none;stroke:url(#SVGID_119_);stroke-width:0.75;stroke-miterlimit:10;}
	.st139{fill:none;stroke:url(#SVGID_120_);stroke-width:0.75;stroke-miterlimit:10;}
	.st140{fill:none;stroke:url(#SVGID_121_);stroke-width:0.75;stroke-miterlimit:10;}
	.st141{fill:none;stroke:url(#SVGID_122_);stroke-width:0.75;stroke-miterlimit:10;}
	.st142{fill:none;stroke:url(#SVGID_123_);stroke-width:0.75;stroke-miterlimit:10;}
	.st143{fill:none;stroke:url(#SVGID_124_);stroke-width:0.75;stroke-miterlimit:10;}
	.st144{fill:none;stroke:url(#SVGID_125_);stroke-width:0.75;stroke-miterlimit:10;}
	.st145{fill:none;stroke:url(#SVGID_126_);stroke-width:0.75;stroke-miterlimit:10;}
	.st146{fill:none;stroke:url(#SVGID_127_);stroke-width:0.75;stroke-miterlimit:10;}
	.st147{fill:none;stroke:url(#SVGID_128_);stroke-width:0.75;stroke-miterlimit:10;}
	.st148{fill:none;stroke:url(#SVGID_129_);stroke-width:0.75;stroke-miterlimit:10;}
	.st149{fill:none;stroke:url(#SVGID_130_);stroke-width:0.75;stroke-miterlimit:10;}
	.st150{fill:none;stroke:url(#SVGID_131_);stroke-width:0.75;stroke-miterlimit:10;}
	.st151{fill:none;stroke:url(#SVGID_132_);stroke-width:0.75;stroke-miterlimit:10;}
	.st152{fill:none;stroke:url(#SVGID_133_);stroke-width:0.75;stroke-miterlimit:10;}
	.st153{fill:none;stroke:url(#SVGID_134_);stroke-width:0.75;stroke-miterlimit:10;}
	.st154{fill:none;stroke:url(#SVGID_135_);stroke-miterlimit:10;}
	.st155{fill:none;stroke:url(#SVGID_136_);stroke-miterlimit:10;}
	.st156{fill:none;stroke:url(#SVGID_137_);stroke-miterlimit:10;}
	.st157{fill:none;stroke:url(#SVGID_138_);stroke-miterlimit:10;}
	.st158{fill:none;stroke:url(#SVGID_139_);stroke-miterlimit:10;}
	.st159{fill:none;stroke:url(#SVGID_140_);stroke-miterlimit:10;}
	.st160{fill:none;stroke:url(#SVGID_141_);stroke-miterlimit:10;}
	.st161{fill:none;stroke:url(#SVGID_142_);stroke-miterlimit:10;}
	.st162{fill:none;stroke:url(#SVGID_143_);stroke-miterlimit:10;}
	.st163{fill:none;stroke:url(#SVGID_144_);stroke-miterlimit:10;}
	.st164{fill:none;stroke:url(#SVGID_145_);stroke-miterlimit:10;}
	.st165{fill:none;stroke:url(#SVGID_146_);stroke-miterlimit:10;}
	.st166{fill:none;stroke:url(#SVGID_147_);stroke-miterlimit:10;}
	.st167{fill:none;stroke:url(#SVGID_148_);stroke-miterlimit:10;}
	.st168{fill:none;stroke:url(#SVGID_149_);stroke-miterlimit:10;}
	.st169{fill:none;stroke:url(#SVGID_150_);stroke-miterlimit:10;}
	.st170{fill:none;stroke:url(#SVGID_151_);stroke-miterlimit:10;}
	.st171{fill:none;stroke:url(#SVGID_152_);stroke-miterlimit:10;}
	.st172{fill:none;stroke:url(#SVGID_153_);stroke-miterlimit:10;}
	.st173{fill:none;stroke:url(#SVGID_154_);stroke-miterlimit:10;}
	.st174{fill:none;stroke:url(#SVGID_155_);stroke-miterlimit:10;}
	.st175{fill:none;stroke:url(#SVGID_156_);stroke-miterlimit:10;}
	.st176{fill:none;stroke:url(#SVGID_157_);stroke-miterlimit:10;}
	.st177{fill:none;stroke:url(#SVGID_158_);stroke-miterlimit:10;}
	.st178{fill:none;stroke:url(#SVGID_159_);stroke-miterlimit:10;}
	.st179{fill:none;stroke:url(#SVGID_160_);stroke-miterlimit:10;}
	.st180{fill:none;stroke:url(#SVGID_161_);stroke-miterlimit:10;}
	.st181{fill:none;stroke:url(#SVGID_162_);stroke-miterlimit:10;}
	.st182{fill:none;stroke:url(#SVGID_163_);stroke-miterlimit:10;}
	.st183{fill:none;stroke:url(#SVGID_164_);stroke-miterlimit:10;}
	.st184{fill:none;stroke:url(#SVGID_165_);stroke-miterlimit:10;}
	.st185{fill:none;stroke:#FFFFFF;stroke-miterlimit:10;}
	.st186{fill:#929292;}
	.st187{fill:#FDFDFD;}
	.st188{clip-path:url(#SVGID_167_);enable-background:new    ;}
	.st189{fill:#949494;}
	.st190{fill:#A3A3A3;}
	.st191{fill:#A8A8A8;}
	.st192{fill:#ADADAD;}
	.st193{fill:#B3B3B3;}
	.st194{fill:#B8B8B8;}
	.st195{fill:#8F8F8F;}
	.st196{fill:#8A8A8A;}
	.st197{fill:#858585;}
	.st198{clip-path:url(#SVGID_169_);enable-background:new    ;}
	.st199{clip-path:url(#SVGID_171_);enable-background:new    ;}
	.st200{fill:none;stroke:#515151;stroke-linecap:round;stroke-linejoin:round;stroke-miterlimit:10;}
	.st201{fill:none;stroke:#161616;stroke-miterlimit:10;}
	.st202{fill:#FFFFFF;stroke:#141414;stroke-linecap:round;stroke-linejoin:round;stroke-miterlimit:10;}
	.st203{fill:#FFFFFF;stroke:#141414;stroke-miterlimit:10;}
	.st204{clip-path:url(#SVGID_173_);}
	.st205{clip-path:url(#SVGID_175_);}
	.st206{clip-path:url(#SVGID_177_);}
	.st207{clip-path:url(#SVGID_179_);}
	.st208{clip-path:url(#SVGID_181_);}
	.st209{clip-path:url(#SVGID_183_);}
	.st210{clip-path:url(#SVGID_185_);}
	.st211{clip-path:url(#SVGID_187_);}
	.st212{clip-path:url(#SVGID_189_);}
	.st213{clip-path:url(#SVGID_191_);}
	.st214{clip-path:url(#SVGID_193_);}
	.st215{clip-path:url(#SVGID_195_);}
	.st216{clip-path:url(#SVGID_197_);}
	.st217{clip-path:url(#SVGID_199_);}
	.st218{clip-path:url(#SVGID_201_);}
	.st219{clip-path:url(#SVGID_203_);}
	.st220{clip-path:url(#SVGID_205_);}
	.st221{clip-path:url(#SVGID_207_);}
	.st222{clip-path:url(#SVGID_209_);}
	.st223{clip-path:url(#SVGID_211_);}
	.st224{clip-path:url(#SVGID_213_);}
	.st225{clip-path:url(#SVGID_215_);}
	.st226{clip-path:url(#SVGID_217_);}
	.st227{clip-path:url(#SVGID_219_);}
	.st228{fill:none;stroke:url(#SVGID_220_);stroke-width:0.75;stroke-miterlimit:10;}
	.st229{fill:none;stroke:url(#SVGID_221_);stroke-width:0.75;stroke-miterlimit:10;}
	.st230{fill:none;stroke:url(#SVGID_222_);stroke-width:0.75;stroke-miterlimit:10;}
	.st231{fill:none;stroke:url(#SVGID_223_);stroke-width:0.75;stroke-miterlimit:10;}
	.st232{fill:none;stroke:url(#SVGID_224_);stroke-width:0.75;stroke-miterlimit:10;}
	.st233{fill:none;stroke:url(#SVGID_225_);stroke-width:0.75;stroke-miterlimit:10;}
	.st234{fill:none;stroke:url(#SVGID_226_);stroke-width:0.75;stroke-miterlimit:10;}
	.st235{fill:none;stroke:url(#SVGID_227_);stroke-width:0.75;stroke-miterlimit:10;}
	.st236{fill:none;stroke:url(#SVGID_228_);stroke-width:0.75;stroke-miterlimit:10;}
	.st237{fill:none;stroke:url(#SVGID_229_);stroke-width:0.75;stroke-miterlimit:10;}
	.st238{fill:none;stroke:url(#SVGID_230_);stroke-width:0.75;stroke-miterlimit:10;}
	.st239{fill:none;stroke:url(#SVGID_231_);stroke-width:0.75;stroke-miterlimit:10;}
	.st240{fill:none;stroke:url(#SVGID_232_);stroke-width:0.75;stroke-miterlimit:10;}
	.st241{fill:none;stroke:url(#SVGID_233_);stroke-width:0.75;stroke-miterlimit:10;}
	.st242{fill:none;stroke:url(#SVGID_234_);stroke-width:0.75;stroke-miterlimit:10;}
	.st243{fill:none;stroke:url(#SVGID_235_);stroke-width:0.75;stroke-miterlimit:10;}
	.st244{fill:#8E80AA;}
	.st245{fill:none;stroke:url(#SVGID_236_);stroke-miterlimit:10;}
	.st246{fill:none;stroke:url(#SVGID_237_);stroke-miterlimit:10;}
	.st247{fill:none;stroke:url(#SVGID_238_);stroke-miterlimit:10;}
	.st248{fill:none;stroke:url(#SVGID_239_);stroke-miterlimit:10;}
	.st249{fill:none;stroke:url(#SVGID_240_);stroke-miterlimit:10;}
	.st250{fill:none;stroke:url(#SVGID_241_);stroke-miterlimit:10;}
	.st251{fill:none;stroke:url(#SVGID_242_);stroke-miterlimit:10;}
	.st252{fill:none;stroke:url(#SVGID_243_);stroke-miterlimit:10;}
	.st253{fill:none;stroke:url(#SVGID_244_);stroke-miterlimit:10;}
	.st254{fill:none;stroke:url(#SVGID_245_);stroke-miterlimit:10;}
	.st255{fill:none;stroke:url(#SVGID_246_);stroke-miterlimit:10;}
	.st256{fill:none;stroke:url(#SVGID_247_);stroke-miterlimit:10;}
	.st257{fill:none;stroke:url(#SVGID_248_);stroke-miterlimit:10;}
	.st258{fill:none;stroke:url(#SVGID_249_);stroke-miterlimit:10;}
	.st259{fill:none;stroke:url(#SVGID_250_);stroke-miterlimit:10;}
	.st260{fill:none;stroke:url(#SVGID_251_);stroke-miterlimit:10;}
	.st261{fill:none;stroke:url(#SVGID_252_);stroke-miterlimit:10;}
	.st262{fill:none;stroke:url(#SVGID_253_);stroke-miterlimit:10;}
	.st263{fill:none;stroke:url(#SVGID_254_);stroke-miterlimit:10;}
	.st264{fill:none;stroke:url(#SVGID_255_);stroke-miterlimit:10;}
	.st265{fill:none;stroke:url(#SVGID_256_);stroke-miterlimit:10;}
	.st266{fill:none;stroke:url(#SVGID_257_);stroke-miterlimit:10;}
	.st267{fill:none;stroke:url(#SVGID_258_);stroke-miterlimit:10;}
	.st268{fill:none;stroke:url(#SVGID_259_);stroke-miterlimit:10;}
	.st269{fill:none;stroke:url(#SVGID_260_);stroke-miterlimit:10;}
	.st270{fill:none;stroke:url(#SVGID_261_);stroke-miterlimit:10;}
	.st271{fill:url(#SVGID_262_);}
	.st272{fill:url(#SVGID_263_);}
	.st273{fill:url(#SVGID_264_);}
	.st274{fill:url(#SVGID_265_);}
	.st275{fill:url(#SVGID_266_);}
	.st276{fill:url(#SVGID_267_);}
	.st277{fill:url(#SVGID_268_);}
	.st278{clip-path:url(#SVGID_270_);}
	.st279{clip-path:url(#SVGID_272_);}
	.st280{clip-path:url(#SVGID_274_);}
	.st281{clip-path:url(#SVGID_276_);}
	.st282{clip-path:url(#SVGID_278_);}
	.st283{clip-path:url(#SVGID_280_);}
	.st284{clip-path:url(#SVGID_282_);}
	.st285{clip-path:url(#SVGID_284_);}
	.st286{fill:none;stroke:url(#SVGID_285_);stroke-width:0.75;stroke-miterlimit:10;}
	.st287{fill:none;stroke:url(#SVGID_286_);stroke-width:0.75;stroke-miterlimit:10;}
	.st288{fill:none;stroke:url(#SVGID_287_);stroke-width:0.75;stroke-miterlimit:10;}
	.st289{fill:none;stroke:url(#SVGID_288_);stroke-width:0.75;stroke-miterlimit:10;}
	.st290{fill:none;stroke:url(#SVGID_289_);stroke-width:0.75;stroke-miterlimit:10;}
	.st291{fill:none;stroke:url(#SVGID_290_);stroke-width:0.75;stroke-miterlimit:10;}
	.st292{fill:none;stroke:url(#SVGID_291_);stroke-width:0.75;stroke-miterlimit:10;}
	.st293{fill:none;stroke:url(#SVGID_292_);stroke-width:0.75;stroke-miterlimit:10;}
	.st294{fill:none;stroke:url(#SVGID_293_);stroke-width:0.75;stroke-miterlimit:10;}
	.st295{fill:none;stroke:url(#SVGID_294_);stroke-width:0.75;stroke-miterlimit:10;}
	.st296{fill:none;stroke:url(#SVGID_295_);stroke-width:0.75;stroke-miterlimit:10;}
	.st297{fill:none;stroke:url(#SVGID_296_);stroke-width:0.75;stroke-miterlimit:10;}
	.st298{fill:none;stroke:url(#SVGID_297_);stroke-width:0.75;stroke-miterlimit:10;}
	.st299{fill:none;stroke:url(#SVGID_298_);stroke-miterlimit:10;}
	.st300{fill:none;stroke:url(#SVGID_299_);stroke-miterlimit:10;}
	.st301{fill:none;stroke:url(#SVGID_300_);stroke-miterlimit:10;}
	.st302{fill:none;stroke:url(#SVGID_301_);stroke-miterlimit:10;}
	.st303{fill:none;stroke:url(#SVGID_302_);stroke-miterlimit:10;}
	.st304{fill:none;stroke:url(#SVGID_303_);stroke-miterlimit:10;}
	.st305{fill:none;stroke:url(#SVGID_304_);stroke-miterlimit:10;}
	.st306{fill:none;stroke:#000000;stroke-miterlimit:10;}
	.st307{fill:none;stroke:url(#SVGID_305_);stroke-miterlimit:10;}
	.st308{fill:none;stroke:url(#SVGID_306_);stroke-miterlimit:10;}
	.st309{fill:none;stroke:url(#SVGID_307_);stroke-miterlimit:10;}
	.st310{fill:none;stroke:url(#SVGID_308_);stroke-miterlimit:10;}
	.st311{fill:none;stroke:url(#SVGID_309_);stroke-miterlimit:10;}
	.st312{fill:none;stroke:url(#SVGID_310_);stroke-miterlimit:10;}
	.st313{fill:none;stroke:url(#SVGID_311_);stroke-miterlimit:10;}
	.st314{fill:none;stroke:url(#SVGID_312_);stroke-miterlimit:10;}
	.st315{fill:none;stroke:url(#SVGID_313_);stroke-miterlimit:10;}
	.st316{fill:none;stroke:url(#SVGID_314_);stroke-miterlimit:10;}
	.st317{fill:none;stroke:url(#SVGID_315_);stroke-miterlimit:10;}
	.st318{fill:none;stroke:url(#SVGID_316_);stroke-miterlimit:10;}
	.st319{fill:none;stroke:url(#SVGID_317_);stroke-miterlimit:10;}
	.st320{fill:none;stroke:url(#SVGID_318_);stroke-miterlimit:10;}
	.st321{fill:none;stroke:url(#SVGID_319_);stroke-miterlimit:10;}
	.st322{fill:none;stroke:url(#SVGID_320_);stroke-miterlimit:10;}
	.st323{fill:none;stroke:url(#SVGID_321_);stroke-miterlimit:10;}
	.st324{fill:none;stroke:url(#SVGID_322_);stroke-miterlimit:10;}
	.st325{fill:none;stroke:url(#SVGID_323_);stroke-miterlimit:10;}
	.st326{fill:none;stroke:url(#SVGID_324_);stroke-miterlimit:10;}
	.st327{fill:none;stroke:url(#SVGID_325_);stroke-miterlimit:10;}
	.st328{fill:none;stroke:url(#SVGID_326_);stroke-miterlimit:10;}
	.st329{fill:none;stroke:url(#SVGID_327_);stroke-miterlimit:10;}
	.st330{fill:none;stroke:url(#SVGID_328_);stroke-miterlimit:10;}
	.st331{fill:none;stroke:url(#SVGID_329_);stroke-miterlimit:10;}
	.st332{fill:none;stroke:url(#SVGID_330_);stroke-miterlimit:10;}
	.st333{fill:none;stroke:url(#SVGID_331_);stroke-miterlimit:10;}
	.st334{fill:none;stroke:url(#SVGID_332_);stroke-miterlimit:10;}
	.st335{fill:none;stroke:url(#SVGID_333_);stroke-miterlimit:10;}
	.st336{fill:none;stroke:url(#SVGID_334_);stroke-miterlimit:10;}
	.st337{fill:none;stroke:url(#SVGID_335_);stroke-miterlimit:10;}
	.st338{fill:none;stroke:url(#SVGID_336_);stroke-miterlimit:10;}
	.st339{fill:none;stroke:url(#SVGID_337_);stroke-miterlimit:10;}
	.st340{fill:none;stroke:url(#SVGID_338_);stroke-miterlimit:10;}
	.st341{fill:none;stroke:url(#SVGID_339_);stroke-miterlimit:10;}
	.st342{fill:none;stroke:url(#SVGID_340_);stroke-miterlimit:10;}
	.st343{fill:none;stroke:url(#SVGID_341_);stroke-miterlimit:10;}
	.st344{fill:none;stroke:url(#SVGID_342_);stroke-miterlimit:10;}
	.st345{fill:none;stroke:url(#SVGID_343_);stroke-miterlimit:10;}
	.st346{fill:url(#SVGID_344_);}
	.st347{fill:url(#SVGID_345_);}
	.st348{fill:url(#SVGID_346_);}
	.st349{fill:url(#SVGID_347_);}
	.st350{fill:url(#SVGID_348_);}
	.st351{fill:url(#SVGID_349_);}
	.st352{fill:url(#SVGID_350_);}
	.st353{fill:none;stroke:url(#SVGID_351_);stroke-miterlimit:10;}
	.st354{fill:none;stroke:url(#SVGID_352_);stroke-miterlimit:10;}
	.st355{fill:none;stroke:url(#SVGID_353_);stroke-miterlimit:10;}
	.st356{fill:none;stroke:url(#SVGID_354_);stroke-miterlimit:10;}
	.st357{fill:none;stroke:url(#SVGID_355_);stroke-miterlimit:10;}
	.st358{fill:none;stroke:url(#SVGID_356_);stroke-miterlimit:10;}
	.st359{fill:none;stroke:url(#SVGID_357_);stroke-miterlimit:10;}
	.st360{fill:none;stroke:url(#SVGID_358_);stroke-miterlimit:10;}
	.st361{fill:none;stroke:url(#SVGID_359_);stroke-miterlimit:10;}
	.st362{fill:none;stroke:url(#SVGID_360_);stroke-miterlimit:10;}
	.st363{fill:none;stroke:url(#SVGID_361_);stroke-miterlimit:10;}
	.st364{fill:none;stroke:url(#SVGID_362_);stroke-miterlimit:10;}
	.st365{fill:none;stroke:url(#SVGID_363_);stroke-miterlimit:10;}
	.st366{fill:none;stroke:url(#SVGID_364_);stroke-miterlimit:10;}
	.st367{fill:none;stroke:url(#SVGID_365_);stroke-miterlimit:10;}
	.st368{fill:none;stroke:url(#SVGID_366_);stroke-miterlimit:10;}
	.st369{fill:none;stroke:url(#SVGID_367_);stroke-miterlimit:10;}
	.st370{fill:none;stroke:url(#SVGID_368_);stroke-miterlimit:10;}
	.st371{fill:none;stroke:url(#SVGID_369_);stroke-miterlimit:10;}
	.st372{fill:none;stroke:url(#SVGID_370_);stroke-miterlimit:10;}
	.st373{fill:none;stroke:url(#SVGID_371_);stroke-miterlimit:10;}
	.st374{fill:none;stroke:url(#SVGID_372_);stroke-miterlimit:10;}
	.st375{fill:none;stroke:url(#SVGID_373_);stroke-miterlimit:10;}
	.st376{fill:none;stroke:url(#SVGID_374_);stroke-miterlimit:10;}
	.st377{fill:none;stroke:url(#SVGID_375_);stroke-miterlimit:10;}
	.st378{fill:none;stroke:url(#SVGID_376_);stroke-miterlimit:10;}
	.st379{fill:none;stroke:url(#SVGID_377_);stroke-miterlimit:10;}
	.st380{fill:none;stroke:url(#SVGID_378_);stroke-miterlimit:10;}
	.st381{fill:none;stroke:url(#SVGID_379_);stroke-miterlimit:10;}
	.st382{fill:none;stroke:url(#SVGID_380_);stroke-miterlimit:10;}
	.st383{fill:none;stroke:url(#SVGID_381_);stroke-miterlimit:10;}
	.st384{fill:none;stroke:url(#SVGID_382_);stroke-miterlimit:10;}
	.st385{fill:none;stroke:url(#SVGID_383_);stroke-miterlimit:10;}
	.st386{fill:#FFFFFF;stroke:#000000;stroke-miterlimit:10;}
	.st387{fill:#7667DB;}
	.st388{fill:#59DB51;}
	.st389{fill:#6098E8;}
	.st390{fill:#DA887D;}
	.st391{fill:none;stroke:#303030;stroke-miterlimit:10;stroke-dasharray:12;}
</style>
<g>
	
		<linearGradient id="SVGID_1_" gradientUnits="userSpaceOnUse" x1="-2336.8772" y1="2424.4575" x2="-2335.8772" y2="2424.4575" gradientTransform="matrix(69.566 -123.0212 110.975 82.484 -106423.5234 -487335.1562)">
		<stop  offset="0" style="stop-color:#59DB51"/>
		<stop  offset="0.4872" style="stop-color:#E6E7E8"/>
		<stop  offset="1" style="stop-color:#7667DB"/>
	</linearGradient>
	<path style="fill:url(#SVGID_1_);" d="M131.26,145.99l0.76,0.21l27.6-100.56c0.62-2.27,0.92-4.55,0.92-6.77
		c0-6.29-2.34-12.16-6.11-16.47c-3.77-4.31-9.01-7.07-14.78-7.07c-1.33,0-2.68,0.15-4.05,0.45L44.01,36.35
		c-4.98,1.12-8.96,4.1-11.66,8.04c-2.71,3.94-4.17,8.84-4.17,13.86c0,5.42,1.71,11.01,5.43,15.66l63.98,80
		c4.26,5.33,9.94,7.88,15.49,7.87c8.26,0.01,16.22-5.62,18.95-15.58L131.26,145.99l-0.76-0.21c-2.57,9.34-9.88,14.41-17.43,14.42
		c-5.07,0-10.27-2.3-14.26-7.28l-63.98-80c-3.48-4.35-5.08-9.58-5.08-14.67c0-4.72,1.38-9.32,3.89-12.97
		c2.52-3.66,6.15-6.37,10.71-7.4l91.58-20.56c1.25-0.28,2.49-0.42,3.71-0.42c5.25,0,10.07,2.52,13.59,6.54
		c3.52,4.02,5.73,9.53,5.72,15.43c0,2.08-0.27,4.21-0.86,6.35l-27.6,100.56L131.26,145.99z"/>
	
		<linearGradient id="SVGID_2_" gradientUnits="userSpaceOnUse" x1="-2336.8772" y1="2424.4575" x2="-2335.8772" y2="2424.4575" gradientTransform="matrix(79.3731 -126.8615 116.1599 90.8492 -96080.5156 -516590.1562)">
		<stop  offset="0" style="stop-color:#59DB51"/>
		<stop  offset="0.4872" style="stop-color:#E6E7E8"/>
		<stop  offset="1" style="stop-color:#7667DB"/>
	</linearGradient>
	<path style="fill:url(#SVGID_2_);" d="M131.37,149.73l0.75,0.24L165.56,45.2c0.86-2.68,1.25-5.38,1.25-8.01
		c0-6.54-2.46-12.67-6.46-17.17c-4-4.5-9.56-7.4-15.75-7.4c-1.21,0-2.44,0.11-3.68,0.34L41.74,31.22
		c-5.53,1.02-10.01,4.15-13.07,8.37c-3.07,4.23-4.74,9.54-4.74,15c0,5.41,1.65,10.96,5.26,15.7l65.75,86.5
		c4.54,5.98,10.82,8.85,16.98,8.84c8.61,0.01,16.99-5.58,20.2-15.67L131.37,149.73l-0.75-0.24c-3.04,9.49-10.77,14.57-18.7,14.58
		c-5.68,0-11.46-2.61-15.73-8.22l-65.75-86.5c-3.38-4.45-4.93-9.66-4.94-14.75c0-5.13,1.58-10.14,4.44-14.07
		c2.86-3.94,6.97-6.81,12.08-7.75l99.18-18.27c1.15-0.21,2.28-0.31,3.39-0.31c5.68,0,10.83,2.65,14.57,6.87
		c3.74,4.21,6.06,9.98,6.06,16.13c0,2.47-0.37,5-1.18,7.53l-33.43,104.77L131.37,149.73z"/>
	
		<linearGradient id="SVGID_3_" gradientUnits="userSpaceOnUse" x1="-2336.8772" y1="2424.4575" x2="-2335.8772" y2="2424.4575" gradientTransform="matrix(90.0561 -130.5412 121.4178 99.8397 -83867.8984 -546986.1875)">
		<stop  offset="0" style="stop-color:#59DB51"/>
		<stop  offset="0.4872" style="stop-color:#E6E7E8"/>
		<stop  offset="1" style="stop-color:#7667DB"/>
	</linearGradient>
	<path style="fill:url(#SVGID_3_);" d="M131.36,153.67l0.74,0.27l39.86-108.99c1.14-3.11,1.66-6.26,1.66-9.33
		c0-6.81-2.59-13.21-6.83-17.93c-4.24-4.72-10.17-7.75-16.81-7.75c-1.05,0-2.12,0.08-3.21,0.23L39.49,25.75
		c-6.13,0.89-11.15,4.16-14.61,8.68c-3.46,4.52-5.38,10.27-5.38,16.19c0,5.38,1.59,10.9,5.07,15.72l67.41,93.42
		c4.82,6.69,11.77,9.92,18.62,9.91c8.96,0.01,17.76-5.52,21.48-15.73L131.36,153.67l-0.74-0.27c-3.52,9.61-11.69,14.68-20.01,14.69
		c-6.36,0-12.79-2.96-17.34-9.26L25.86,65.41c-3.28-4.54-4.77-9.73-4.77-14.8c0-5.58,1.82-11.01,5.06-15.23
		c3.24-4.23,7.88-7.25,13.58-8.08l107.27-15.57c1.01-0.15,2-0.22,2.98-0.22c6.16,0,11.66,2.8,15.64,7.23
		c3.98,4.43,6.43,10.47,6.43,16.88c0,2.89-0.5,5.85-1.57,8.79L130.62,153.4L131.36,153.67z"/>
	
		<linearGradient id="SVGID_4_" gradientUnits="userSpaceOnUse" x1="-2336.8772" y1="2424.4575" x2="-2335.8772" y2="2424.4575" gradientTransform="matrix(101.6743 -134.0198 126.7307 109.4909 -69603.4531 -578513.75)">
		<stop  offset="0" style="stop-color:#59DB51"/>
		<stop  offset="0.4872" style="stop-color:#E6E7E8"/>
		<stop  offset="1" style="stop-color:#7667DB"/>
	</linearGradient>
	<path style="fill:url(#SVGID_4_);" d="M131.19,157.81l0.73,0.3l46.92-113.19c1.47-3.55,2.15-7.19,2.15-10.73
		c0-7.1-2.73-13.8-7.24-18.74c-4.51-4.94-10.83-8.13-17.99-8.13c-0.86,0-1.74,0.05-2.62,0.14L37.28,19.9
		c-6.78,0.73-12.39,4.13-16.29,8.94c-3.89,4.81-6.09,11.03-6.09,17.44c0,5.34,1.53,10.82,4.87,15.71l68.94,100.75
		c5.11,7.47,12.8,11.11,20.4,11.1c9.32,0.01,18.54-5.45,22.8-15.74L131.19,157.81l-0.73-0.3c-4.03,9.71-12.63,14.76-21.34,14.77
		c-7.11,0-14.27-3.36-19.1-10.42L21.08,61.11c-3.16-4.62-4.6-9.77-4.6-14.82c0-6.05,2.08-11.93,5.74-16.45
		c3.66-4.52,8.88-7.69,15.23-8.37L153.31,9.03c0.83-0.09,1.65-0.13,2.46-0.13c6.68,0,12.57,2.96,16.83,7.61
		c4.25,4.65,6.83,10.99,6.83,17.68c0,3.34-0.64,6.76-2.03,10.12l-46.92,113.19L131.19,157.81z"/>
	
		<linearGradient id="SVGID_5_" gradientUnits="userSpaceOnUse" x1="-2336.8772" y1="2424.4575" x2="-2335.8772" y2="2424.4575" gradientTransform="matrix(114.2898 -137.2523 132.0777 119.839 -53091.5234 -611156.5625)">
		<stop  offset="0" style="stop-color:#59DB51"/>
		<stop  offset="0.4872" style="stop-color:#E6E7E8"/>
		<stop  offset="1" style="stop-color:#7667DB"/>
	</linearGradient>
	<path style="fill:url(#SVGID_5_);" d="M130.85,162.16l0.71,0.33l54.67-117.35c1.87-4.02,2.73-8.17,2.73-12.21
		c0-7.41-2.88-14.43-7.69-19.62c-4.81-5.19-11.57-8.53-19.28-8.53c-0.63,0-1.27,0.02-1.91,0.07L35.12,13.68
		c-7.48,0.53-13.75,4.05-18.12,9.17c-4.38,5.12-6.88,11.82-6.88,18.76c0,5.29,1.46,10.72,4.66,15.65l70.3,108.52
		c5.4,8.34,13.91,12.42,22.36,12.42c9.69,0.01,19.32-5.37,24.13-15.7L130.85,162.16l-0.71-0.33c-4.56,9.78-13.59,14.79-22.7,14.79
		c-7.95,0-15.92-3.81-21.04-11.7L16.1,56.4c-3.03-4.68-4.4-9.8-4.41-14.8c0-6.56,2.37-12.91,6.5-17.73c4.13-4.82,10-8.12,17.04-8.62
		L160.2,6.42c0.61-0.04,1.21-0.06,1.8-0.06c7.25,0,13.58,3.13,18.13,8.03c4.54,4.9,7.27,11.55,7.27,18.55
		c0,3.82-0.81,7.74-2.58,11.55l-54.67,117.35L130.85,162.16z"/>
	
		<linearGradient id="SVGID_6_" gradientUnits="userSpaceOnUse" x1="-2336.8772" y1="2424.4575" x2="-2335.8772" y2="2424.4575" gradientTransform="matrix(128.0325 -140.2602 137.5046 130.9874 -34139.7734 -645214.75)">
		<stop  offset="0" style="stop-color:#59DB51"/>
		<stop  offset="0.4872" style="stop-color:#E6E7E8"/>
		<stop  offset="1" style="stop-color:#7667DB"/>
	</linearGradient>
	<path style="fill:url(#SVGID_6_);" d="M130.33,166.73l0.7,0.36l63.15-121.45c2.34-4.49,3.41-9.2,3.41-13.78
		c0-7.74-3.05-15.11-8.18-20.56c-5.13-5.45-12.37-8.97-20.71-8.97c-0.35,0-0.69,0.01-1.04,0.02L33.03,7.05
		c-8.22,0.29-15.21,3.91-20.12,9.34C8,21.81,5.15,29.02,5.15,36.52c0,5.23,1.39,10.6,4.43,15.57l71.47,116.75
		c5.68,9.28,15.11,13.88,24.49,13.88c10.05,0.01,20.1-5.27,25.48-15.62L130.33,166.73l-0.7-0.36c-5.11,9.81-14.57,14.77-24.08,14.77
		c-8.88,0-17.76-4.32-23.15-13.12L10.93,51.27c-2.89-4.72-4.2-9.79-4.2-14.75c0-7.1,2.7-13.95,7.35-19.08
		c4.65-5.13,11.22-8.55,19.01-8.82l134.63-4.7c0.33-0.01,0.66-0.02,0.99-0.02c7.89,0,14.7,3.32,19.56,8.48
		c4.86,5.16,7.75,12.16,7.75,19.48c0,4.34-1.01,8.79-3.23,13.06l-63.15,121.45L130.33,166.73z"/>
	
		<linearGradient id="SVGID_7_" gradientUnits="userSpaceOnUse" x1="-2336.8772" y1="2424.4575" x2="-2335.8772" y2="2424.4575" gradientTransform="matrix(142.7769 -142.7769 142.7769 142.7769 -12472.4014 -679679.875)">
		<stop  offset="0" style="stop-color:#59DB51"/>
		<stop  offset="0.4872" style="stop-color:#E6E7E8"/>
		<stop  offset="1" style="stop-color:#7667DB"/>
	</linearGradient>
	<path style="fill:url(#SVGID_7_);" d="M129.59,171.51l0.68,0.39L202.7,46.47c2.88-4.98,4.2-10.28,4.19-15.44
		c0-8.1-3.23-15.84-8.73-21.58C192.67,3.71,184.9,0,175.87,0H31.02c-9.03,0-16.8,3.71-22.29,9.45C3.23,15.18,0,22.93,0,31.02
		c0,5.16,1.32,10.46,4.2,15.44l72.42,125.44c5.95,10.32,16.4,15.49,26.83,15.49c10.42,0,20.87-5.17,26.83-15.49L129.59,171.51
		l-0.68-0.39c-5.67,9.81-15.55,14.7-25.46,14.7c-9.91,0-19.8-4.89-25.46-14.7L5.56,45.68c-2.74-4.75-3.98-9.76-3.98-14.65
		c0-7.67,3.07-15.04,8.29-20.49c5.22-5.44,12.56-8.96,21.16-8.96h144.85c8.59,0,15.94,3.52,21.16,8.96
		c5.22,5.44,8.29,12.81,8.29,20.49c0,4.89-1.25,9.91-3.98,14.65l-72.42,125.44L129.59,171.51z"/>
</g>
</svg>
